<mxfile host="app.diagrams.net" agent="Mozilla/5.0 (Windows NT 10.0; Win64; x64) AppleWebKit/537.36 (KHTML, like Gecko) Chrome/140.0.0.0 Safari/537.36" version="28.2.3">
  <diagram name="Page-1" id="AsH5cZQ7E0sas2CTZ7LY">
    <mxGraphModel dx="1655" dy="1589" grid="1" gridSize="10" guides="1" tooltips="1" connect="1" arrows="1" fold="1" page="1" pageScale="1" pageWidth="827" pageHeight="1169" math="0" shadow="0">
      <root>
        <mxCell id="0" />
        <mxCell id="1" parent="0" />
        <mxCell id="VqrO-3gcOEbuM5ed-gqK-219" value="" style="endArrow=none;html=1;rounded=0;" parent="1" edge="1">
          <mxGeometry width="50" height="50" relative="1" as="geometry">
            <mxPoint x="-400" y="40" as="sourcePoint" />
            <mxPoint x="280" y="40" as="targetPoint" />
            <Array as="points">
              <mxPoint x="-400" />
              <mxPoint x="-360" />
              <mxPoint x="-360" y="40" />
              <mxPoint x="-320" y="40" />
              <mxPoint x="-320" />
              <mxPoint x="-280" />
              <mxPoint x="-280" y="40" />
              <mxPoint x="-240" y="40" />
              <mxPoint x="-240" />
              <mxPoint x="-200" />
              <mxPoint x="-200" y="40" />
              <mxPoint x="-160" y="40" />
              <mxPoint x="-160" />
              <mxPoint x="-120" />
              <mxPoint x="-120" y="40" />
              <mxPoint x="-80" y="40" />
              <mxPoint x="-80" />
              <mxPoint x="-40" />
              <mxPoint x="-40" y="40" />
              <mxPoint y="40" />
              <mxPoint />
              <mxPoint x="40" />
              <mxPoint x="40" y="40" />
              <mxPoint x="80" y="40" />
              <mxPoint x="80" />
              <mxPoint x="120" />
              <mxPoint x="120" y="40" />
              <mxPoint x="160" y="40" />
              <mxPoint x="160" />
              <mxPoint x="200" />
              <mxPoint x="200" y="40" />
              <mxPoint x="240" y="40" />
              <mxPoint x="240" />
              <mxPoint x="280" />
            </Array>
          </mxGeometry>
        </mxCell>
        <mxCell id="VqrO-3gcOEbuM5ed-gqK-240" value="Inst bytes arrive" style="text;html=1;align=center;verticalAlign=middle;whiteSpace=wrap;rounded=0;" parent="1" vertex="1">
          <mxGeometry x="-600" y="160" width="160" height="40" as="geometry" />
        </mxCell>
        <mxCell id="VqrO-3gcOEbuM5ed-gqK-241" value="Inst Len, PC decoded" style="text;html=1;align=center;verticalAlign=middle;whiteSpace=wrap;rounded=0;" parent="1" vertex="1">
          <mxGeometry x="-600" y="80" width="160" height="40" as="geometry" />
        </mxCell>
        <mxCell id="VqrO-3gcOEbuM5ed-gqK-242" value="&lt;div&gt;Decode #uops &amp;amp; #PR&lt;/div&gt;&lt;div&gt;Signal PR alloc, snapshot PR alloc to fwd to next stg&lt;/div&gt;" style="text;html=1;align=center;verticalAlign=middle;whiteSpace=wrap;rounded=0;" parent="1" vertex="1">
          <mxGeometry x="-600" y="-10" width="160" height="60" as="geometry" />
        </mxCell>
        <mxCell id="VqrO-3gcOEbuM5ed-gqK-243" value="" style="endArrow=none;html=1;rounded=0;" parent="1" edge="1">
          <mxGeometry width="50" height="50" relative="1" as="geometry">
            <mxPoint x="-400" y="120" as="sourcePoint" />
            <mxPoint x="280" y="120" as="targetPoint" />
            <Array as="points">
              <mxPoint x="-400" y="80" />
              <mxPoint x="-360" y="80" />
              <mxPoint x="-360" y="120" />
              <mxPoint x="-320" y="120" />
              <mxPoint x="-320" y="80" />
              <mxPoint x="-280" y="80" />
              <mxPoint x="-280" y="120" />
              <mxPoint x="-240" y="120" />
              <mxPoint x="-240" y="80" />
              <mxPoint x="-200" y="80" />
              <mxPoint x="-200" y="120" />
              <mxPoint x="-160" y="120" />
              <mxPoint x="-160" y="80" />
              <mxPoint x="-120" y="80" />
              <mxPoint x="-120" y="120" />
              <mxPoint x="-80" y="120" />
              <mxPoint x="-80" y="80" />
              <mxPoint x="-40" y="80" />
              <mxPoint x="-40" y="120" />
              <mxPoint y="120" />
              <mxPoint y="80" />
              <mxPoint x="40" y="80" />
              <mxPoint x="40" y="120" />
              <mxPoint x="80" y="120" />
              <mxPoint x="80" y="80" />
              <mxPoint x="120" y="80" />
              <mxPoint x="120" y="120" />
              <mxPoint x="160" y="120" />
              <mxPoint x="160" y="80" />
              <mxPoint x="200" y="80" />
              <mxPoint x="200" y="120" />
              <mxPoint x="240" y="120" />
              <mxPoint x="240" y="80" />
              <mxPoint x="280" y="80" />
            </Array>
          </mxGeometry>
        </mxCell>
        <mxCell id="VqrO-3gcOEbuM5ed-gqK-244" value="" style="endArrow=none;html=1;rounded=0;" parent="1" edge="1">
          <mxGeometry width="50" height="50" relative="1" as="geometry">
            <mxPoint x="-400" y="200" as="sourcePoint" />
            <mxPoint x="280" y="200" as="targetPoint" />
            <Array as="points">
              <mxPoint x="-400" y="160" />
              <mxPoint x="-360" y="160" />
              <mxPoint x="-360" y="200" />
              <mxPoint x="-320" y="200" />
              <mxPoint x="-320" y="160" />
              <mxPoint x="-280" y="160" />
              <mxPoint x="-280" y="200" />
              <mxPoint x="-240" y="200" />
              <mxPoint x="-240" y="160" />
              <mxPoint x="-200" y="160" />
              <mxPoint x="-200" y="200" />
              <mxPoint x="-160" y="200" />
              <mxPoint x="-160" y="160" />
              <mxPoint x="-120" y="160" />
              <mxPoint x="-120" y="200" />
              <mxPoint x="-80" y="200" />
              <mxPoint x="-80" y="160" />
              <mxPoint x="-40" y="160" />
              <mxPoint x="-40" y="200" />
              <mxPoint y="200" />
              <mxPoint y="160" />
              <mxPoint x="40" y="160" />
              <mxPoint x="40" y="200" />
              <mxPoint x="80" y="200" />
              <mxPoint x="80" y="160" />
              <mxPoint x="120" y="160" />
              <mxPoint x="120" y="200" />
              <mxPoint x="160" y="200" />
              <mxPoint x="160" y="160" />
              <mxPoint x="200" y="160" />
              <mxPoint x="200" y="200" />
              <mxPoint x="240" y="200" />
              <mxPoint x="240" y="160" />
              <mxPoint x="280" y="160" />
            </Array>
          </mxGeometry>
        </mxCell>
        <mxCell id="VqrO-3gcOEbuM5ed-gqK-249" value="" style="endArrow=none;html=1;rounded=0;" parent="1" edge="1">
          <mxGeometry width="50" height="50" relative="1" as="geometry">
            <mxPoint x="-400" y="-40" as="sourcePoint" />
            <mxPoint x="280" y="-40" as="targetPoint" />
            <Array as="points">
              <mxPoint x="-400" y="-80" />
              <mxPoint x="-360" y="-80" />
              <mxPoint x="-360" y="-40" />
              <mxPoint x="-320" y="-40" />
              <mxPoint x="-320" y="-80" />
              <mxPoint x="-280" y="-80" />
              <mxPoint x="-280" y="-40" />
              <mxPoint x="-240" y="-40" />
              <mxPoint x="-240" y="-80" />
              <mxPoint x="-200" y="-80" />
              <mxPoint x="-200" y="-40" />
              <mxPoint x="-160" y="-40" />
              <mxPoint x="-160" y="-80" />
              <mxPoint x="-120" y="-80" />
              <mxPoint x="-120" y="-40" />
              <mxPoint x="-80" y="-40" />
              <mxPoint x="-80" y="-80" />
              <mxPoint x="-40" y="-80" />
              <mxPoint x="-40" y="-40" />
              <mxPoint y="-40" />
              <mxPoint y="-80" />
              <mxPoint x="40" y="-80" />
              <mxPoint x="40" y="-40" />
              <mxPoint x="80" y="-40" />
              <mxPoint x="80" y="-80" />
              <mxPoint x="120" y="-80" />
              <mxPoint x="120" y="-40" />
              <mxPoint x="160" y="-40" />
              <mxPoint x="160" y="-80" />
              <mxPoint x="200" y="-80" />
              <mxPoint x="200" y="-40" />
              <mxPoint x="240" y="-40" />
              <mxPoint x="240" y="-80" />
              <mxPoint x="280" y="-80" />
            </Array>
          </mxGeometry>
        </mxCell>
        <mxCell id="VqrO-3gcOEbuM5ed-gqK-251" value="Uop decoded + PRs assigned. RAT updated too." style="text;html=1;align=center;verticalAlign=middle;whiteSpace=wrap;rounded=0;" parent="1" vertex="1">
          <mxGeometry x="-600" y="-80" width="160" height="40" as="geometry" />
        </mxCell>
        <mxCell id="VqrO-3gcOEbuM5ed-gqK-259" value="If ROB &amp;amp; scheduler able to take uop(s)" style="text;html=1;align=center;verticalAlign=middle;whiteSpace=wrap;rounded=0;" parent="1" vertex="1">
          <mxGeometry x="-720" y="-60" width="120" height="40" as="geometry" />
        </mxCell>
        <mxCell id="VqrO-3gcOEbuM5ed-gqK-264" value="" style="endArrow=classic;html=1;rounded=0;" parent="1" edge="1">
          <mxGeometry width="50" height="50" relative="1" as="geometry">
            <mxPoint x="-400" y="160" as="sourcePoint" />
            <mxPoint x="-320" y="80" as="targetPoint" />
          </mxGeometry>
        </mxCell>
        <mxCell id="VqrO-3gcOEbuM5ed-gqK-265" value="&lt;font style=&quot;font-size: 17px;&quot;&gt;1&lt;/font&gt;" style="text;html=1;align=center;verticalAlign=middle;whiteSpace=wrap;rounded=0;" parent="1" vertex="1">
          <mxGeometry x="320" y="120" width="40" height="40" as="geometry" />
        </mxCell>
        <mxCell id="VqrO-3gcOEbuM5ed-gqK-266" value="&lt;font style=&quot;font-size: 17px;&quot;&gt;2&lt;/font&gt;" style="text;html=1;align=center;verticalAlign=middle;whiteSpace=wrap;rounded=0;" parent="1" vertex="1">
          <mxGeometry x="320" y="40" width="40" height="40" as="geometry" />
        </mxCell>
        <mxCell id="VqrO-3gcOEbuM5ed-gqK-267" value="&lt;font style=&quot;font-size: 17px;&quot;&gt;3&lt;/font&gt;" style="text;html=1;align=center;verticalAlign=middle;whiteSpace=wrap;rounded=0;" parent="1" vertex="1">
          <mxGeometry x="320" y="-40" width="40" height="40" as="geometry" />
        </mxCell>
        <mxCell id="VqrO-3gcOEbuM5ed-gqK-269" value="&lt;font style=&quot;font-size: 17px;&quot;&gt;2&lt;/font&gt;" style="text;html=1;align=center;verticalAlign=middle;whiteSpace=wrap;rounded=0;" parent="1" vertex="1">
          <mxGeometry x="320" y="-240" width="40" height="40" as="geometry" />
        </mxCell>
        <mxCell id="VqrO-3gcOEbuM5ed-gqK-271" value="&lt;font style=&quot;font-size: 17px;&quot;&gt;1&lt;/font&gt;" style="text;html=1;align=center;verticalAlign=middle;whiteSpace=wrap;rounded=0;" parent="1" vertex="1">
          <mxGeometry x="320" y="-160" width="40" height="40" as="geometry" />
        </mxCell>
        <mxCell id="VqrO-3gcOEbuM5ed-gqK-272" value="" style="endArrow=classic;html=1;rounded=0;" parent="1" edge="1">
          <mxGeometry width="50" height="50" relative="1" as="geometry">
            <mxPoint x="-240" as="sourcePoint" />
            <mxPoint x="-160" y="-80" as="targetPoint" />
          </mxGeometry>
        </mxCell>
        <mxCell id="VqrO-3gcOEbuM5ed-gqK-273" value="" style="endArrow=none;html=1;rounded=0;" parent="1" edge="1">
          <mxGeometry width="50" height="50" relative="1" as="geometry">
            <mxPoint x="-480" y="-120" as="sourcePoint" />
            <mxPoint x="280" y="-160" as="targetPoint" />
            <Array as="points">
              <mxPoint x="-440" y="-120" />
              <mxPoint x="-400" y="-160" />
              <mxPoint x="-80" y="-160" />
              <mxPoint x="-40" y="-120" />
              <mxPoint y="-120" />
              <mxPoint x="40" y="-160" />
            </Array>
          </mxGeometry>
        </mxCell>
        <mxCell id="VqrO-3gcOEbuM5ed-gqK-274" value="" style="endArrow=none;html=1;rounded=0;" parent="1" edge="1">
          <mxGeometry width="50" height="50" relative="1" as="geometry">
            <mxPoint x="-480" y="-200" as="sourcePoint" />
            <mxPoint x="280" y="-240" as="targetPoint" />
            <Array as="points">
              <mxPoint x="-360" y="-200" />
              <mxPoint x="-320" y="-240" />
              <mxPoint x="-80" y="-240" />
              <mxPoint x="-40" y="-200" />
              <mxPoint y="-200" />
              <mxPoint x="40" y="-240" />
            </Array>
          </mxGeometry>
        </mxCell>
        <mxCell id="VqrO-3gcOEbuM5ed-gqK-275" value="" style="endArrow=classic;html=1;rounded=0;" parent="1" edge="1">
          <mxGeometry width="50" height="50" relative="1" as="geometry">
            <mxPoint x="-160" as="sourcePoint" />
            <mxPoint x="-80" y="-80" as="targetPoint" />
          </mxGeometry>
        </mxCell>
        <mxCell id="VqrO-3gcOEbuM5ed-gqK-276" value="" style="endArrow=classic;html=1;rounded=0;" parent="1" edge="1">
          <mxGeometry width="50" height="50" relative="1" as="geometry">
            <mxPoint x="-320" y="80" as="sourcePoint" />
            <mxPoint x="-240" as="targetPoint" />
          </mxGeometry>
        </mxCell>
        <mxCell id="VqrO-3gcOEbuM5ed-gqK-277" value="" style="endArrow=classic;html=1;rounded=0;" parent="1" edge="1">
          <mxGeometry width="50" height="50" relative="1" as="geometry">
            <mxPoint x="-240" y="80" as="sourcePoint" />
            <mxPoint x="-160" as="targetPoint" />
          </mxGeometry>
        </mxCell>
        <mxCell id="VqrO-3gcOEbuM5ed-gqK-278" value="" style="endArrow=classic;html=1;rounded=0;" parent="1" edge="1">
          <mxGeometry width="50" height="50" relative="1" as="geometry">
            <mxPoint x="-320" y="160" as="sourcePoint" />
            <mxPoint x="-240" y="80" as="targetPoint" />
          </mxGeometry>
        </mxCell>
        <mxCell id="VqrO-3gcOEbuM5ed-gqK-279" value="" style="endArrow=classic;html=1;rounded=0;" parent="1" edge="1">
          <mxGeometry width="50" height="50" relative="1" as="geometry">
            <mxPoint x="-240" y="160" as="sourcePoint" />
            <mxPoint x="-160" y="80" as="targetPoint" />
          </mxGeometry>
        </mxCell>
        <mxCell id="VqrO-3gcOEbuM5ed-gqK-280" value="" style="endArrow=classic;html=1;rounded=0;" parent="1" edge="1">
          <mxGeometry width="50" height="50" relative="1" as="geometry">
            <mxPoint x="-160" y="80" as="sourcePoint" />
            <mxPoint x="-80" as="targetPoint" />
          </mxGeometry>
        </mxCell>
        <mxCell id="VqrO-3gcOEbuM5ed-gqK-281" value="" style="endArrow=classic;html=1;rounded=0;" parent="1" edge="1">
          <mxGeometry width="50" height="50" relative="1" as="geometry">
            <mxPoint x="-80" as="sourcePoint" />
            <mxPoint x="80" y="-80" as="targetPoint" />
          </mxGeometry>
        </mxCell>
        <mxCell id="VqrO-3gcOEbuM5ed-gqK-282" value="If PRs available" style="text;html=1;align=center;verticalAlign=middle;whiteSpace=wrap;rounded=0;" parent="1" vertex="1">
          <mxGeometry x="-720" y="20" width="120" height="40" as="geometry" />
        </mxCell>
        <mxCell id="VqrO-3gcOEbuM5ed-gqK-283" value="If enough bytes to decode an instruction" style="text;html=1;align=center;verticalAlign=middle;whiteSpace=wrap;rounded=0;" parent="1" vertex="1">
          <mxGeometry x="-720" y="100" width="120" height="40" as="geometry" />
        </mxCell>
        <mxCell id="VqrO-3gcOEbuM5ed-gqK-284" value="" style="endArrow=none;html=1;rounded=0;" parent="1" edge="1">
          <mxGeometry width="50" height="50" relative="1" as="geometry">
            <mxPoint x="-480" y="-280" as="sourcePoint" />
            <mxPoint x="280" y="-320" as="targetPoint" />
            <Array as="points">
              <mxPoint x="-280" y="-280" />
              <mxPoint x="-240" y="-320" />
              <mxPoint x="-80" y="-320" />
              <mxPoint x="-40" y="-280" />
              <mxPoint y="-280" />
              <mxPoint x="40" y="-320" />
            </Array>
          </mxGeometry>
        </mxCell>
        <mxCell id="VqrO-3gcOEbuM5ed-gqK-285" value="&lt;font style=&quot;font-size: 17px;&quot;&gt;3&lt;/font&gt;" style="text;html=1;align=center;verticalAlign=middle;whiteSpace=wrap;rounded=0;" parent="1" vertex="1">
          <mxGeometry x="320" y="-320" width="40" height="40" as="geometry" />
        </mxCell>
        <mxCell id="VqrO-3gcOEbuM5ed-gqK-305" value="id" style="text;html=1;align=center;verticalAlign=middle;whiteSpace=wrap;rounded=0;" parent="1" vertex="1">
          <mxGeometry x="-540" y="-420" width="20" height="20" as="geometry" />
        </mxCell>
        <mxCell id="VqrO-3gcOEbuM5ed-gqK-306" value="en" style="text;html=1;align=center;verticalAlign=middle;whiteSpace=wrap;rounded=0;" parent="1" vertex="1">
          <mxGeometry x="-520" y="-420" width="20" height="20" as="geometry" />
        </mxCell>
        <mxCell id="VqrO-3gcOEbuM5ed-gqK-308" value="dn" style="text;html=1;align=center;verticalAlign=middle;whiteSpace=wrap;rounded=0;" parent="1" vertex="1">
          <mxGeometry x="-480" y="-420" width="20" height="20" as="geometry" />
        </mxCell>
        <mxCell id="VqrO-3gcOEbuM5ed-gqK-309" value="is" style="text;html=1;align=center;verticalAlign=middle;whiteSpace=wrap;rounded=0;" parent="1" vertex="1">
          <mxGeometry x="-460" y="-420" width="20" height="20" as="geometry" />
        </mxCell>
        <mxCell id="VqrO-3gcOEbuM5ed-gqK-310" value="|" style="text;html=1;align=center;verticalAlign=middle;whiteSpace=wrap;rounded=0;" parent="1" vertex="1">
          <mxGeometry x="-500" y="-420" width="20" height="20" as="geometry" />
        </mxCell>
        <mxCell id="VqrO-3gcOEbuM5ed-gqK-311" value="0" style="text;html=1;align=center;verticalAlign=middle;whiteSpace=wrap;rounded=0;" parent="1" vertex="1">
          <mxGeometry x="-540" y="-400" width="20" height="20" as="geometry" />
        </mxCell>
        <mxCell id="VqrO-3gcOEbuM5ed-gqK-312" value="0" style="text;html=1;align=center;verticalAlign=middle;whiteSpace=wrap;rounded=0;" parent="1" vertex="1">
          <mxGeometry x="-520" y="-400" width="20" height="20" as="geometry" />
        </mxCell>
        <mxCell id="VqrO-3gcOEbuM5ed-gqK-314" value="0" style="text;html=1;align=center;verticalAlign=middle;whiteSpace=wrap;rounded=0;" parent="1" vertex="1">
          <mxGeometry x="-480" y="-400" width="20" height="20" as="geometry" />
        </mxCell>
        <mxCell id="VqrO-3gcOEbuM5ed-gqK-315" value="0" style="text;html=1;align=center;verticalAlign=middle;whiteSpace=wrap;rounded=0;" parent="1" vertex="1">
          <mxGeometry x="-460" y="-400" width="20" height="20" as="geometry" />
        </mxCell>
        <mxCell id="VqrO-3gcOEbuM5ed-gqK-316" value="|" style="text;html=1;align=center;verticalAlign=middle;whiteSpace=wrap;rounded=0;" parent="1" vertex="1">
          <mxGeometry x="-500" y="-400" width="20" height="20" as="geometry" />
        </mxCell>
        <mxCell id="VqrO-3gcOEbuM5ed-gqK-335" value="0" style="text;html=1;align=center;verticalAlign=middle;whiteSpace=wrap;rounded=0;" parent="1" vertex="1">
          <mxGeometry x="-540" y="-380" width="20" height="20" as="geometry" />
        </mxCell>
        <mxCell id="VqrO-3gcOEbuM5ed-gqK-336" value="1" style="text;html=1;align=center;verticalAlign=middle;whiteSpace=wrap;rounded=0;" parent="1" vertex="1">
          <mxGeometry x="-520" y="-380" width="20" height="20" as="geometry" />
        </mxCell>
        <mxCell id="VqrO-3gcOEbuM5ed-gqK-338" value="0" style="text;html=1;align=center;verticalAlign=middle;whiteSpace=wrap;rounded=0;" parent="1" vertex="1">
          <mxGeometry x="-480" y="-380" width="20" height="20" as="geometry" />
        </mxCell>
        <mxCell id="VqrO-3gcOEbuM5ed-gqK-339" value="0" style="text;html=1;align=center;verticalAlign=middle;whiteSpace=wrap;rounded=0;" parent="1" vertex="1">
          <mxGeometry x="-460" y="-380" width="20" height="20" as="geometry" />
        </mxCell>
        <mxCell id="VqrO-3gcOEbuM5ed-gqK-340" value="|" style="text;html=1;align=center;verticalAlign=middle;whiteSpace=wrap;rounded=0;" parent="1" vertex="1">
          <mxGeometry x="-500" y="-380" width="20" height="20" as="geometry" />
        </mxCell>
        <mxCell id="VqrO-3gcOEbuM5ed-gqK-347" value="1" style="text;html=1;align=center;verticalAlign=middle;whiteSpace=wrap;rounded=0;" parent="1" vertex="1">
          <mxGeometry x="-540" y="-360" width="20" height="20" as="geometry" />
        </mxCell>
        <mxCell id="VqrO-3gcOEbuM5ed-gqK-348" value="1" style="text;html=1;align=center;verticalAlign=middle;whiteSpace=wrap;rounded=0;" parent="1" vertex="1">
          <mxGeometry x="-520" y="-360" width="20" height="20" as="geometry" />
        </mxCell>
        <mxCell id="VqrO-3gcOEbuM5ed-gqK-350" value="1" style="text;html=1;align=center;verticalAlign=middle;whiteSpace=wrap;rounded=0;" parent="1" vertex="1">
          <mxGeometry x="-480" y="-360" width="20" height="20" as="geometry" />
        </mxCell>
        <mxCell id="VqrO-3gcOEbuM5ed-gqK-351" value="1" style="text;html=1;align=center;verticalAlign=middle;whiteSpace=wrap;rounded=0;" parent="1" vertex="1">
          <mxGeometry x="-460" y="-360" width="20" height="20" as="geometry" />
        </mxCell>
        <mxCell id="VqrO-3gcOEbuM5ed-gqK-352" value="|" style="text;html=1;align=center;verticalAlign=middle;whiteSpace=wrap;rounded=0;" parent="1" vertex="1">
          <mxGeometry x="-500" y="-360" width="20" height="20" as="geometry" />
        </mxCell>
        <mxCell id="VqrO-3gcOEbuM5ed-gqK-353" value="1" style="text;html=1;align=center;verticalAlign=middle;whiteSpace=wrap;rounded=0;" parent="1" vertex="1">
          <mxGeometry x="-540" y="-340" width="20" height="20" as="geometry" />
        </mxCell>
        <mxCell id="VqrO-3gcOEbuM5ed-gqK-354" value="0" style="text;html=1;align=center;verticalAlign=middle;whiteSpace=wrap;rounded=0;" parent="1" vertex="1">
          <mxGeometry x="-520" y="-340" width="20" height="20" as="geometry" />
        </mxCell>
        <mxCell id="VqrO-3gcOEbuM5ed-gqK-356" value="1" style="text;html=1;align=center;verticalAlign=middle;whiteSpace=wrap;rounded=0;" parent="1" vertex="1">
          <mxGeometry x="-480" y="-340" width="20" height="20" as="geometry" />
        </mxCell>
        <mxCell id="VqrO-3gcOEbuM5ed-gqK-357" value="0" style="text;html=1;align=center;verticalAlign=middle;whiteSpace=wrap;rounded=0;" parent="1" vertex="1">
          <mxGeometry x="-460" y="-340" width="20" height="20" as="geometry" />
        </mxCell>
        <mxCell id="VqrO-3gcOEbuM5ed-gqK-358" value="|" style="text;html=1;align=center;verticalAlign=middle;whiteSpace=wrap;rounded=0;" parent="1" vertex="1">
          <mxGeometry x="-500" y="-340" width="20" height="20" as="geometry" />
        </mxCell>
        <mxCell id="VqrO-3gcOEbuM5ed-gqK-418" style="edgeStyle=orthogonalEdgeStyle;rounded=0;orthogonalLoop=1;jettySize=auto;html=1;exitX=0.5;exitY=1;exitDx=0;exitDy=0;entryX=0.5;entryY=0;entryDx=0;entryDy=0;" parent="1" source="VqrO-3gcOEbuM5ed-gqK-413" target="VqrO-3gcOEbuM5ed-gqK-305" edge="1">
          <mxGeometry relative="1" as="geometry" />
        </mxCell>
        <mxCell id="VqrO-3gcOEbuM5ed-gqK-413" value="Instruction Decoded" style="text;html=1;align=center;verticalAlign=middle;whiteSpace=wrap;rounded=0;" parent="1" vertex="1">
          <mxGeometry x="-600" y="-490" width="60" height="30" as="geometry" />
        </mxCell>
        <mxCell id="VqrO-3gcOEbuM5ed-gqK-416" style="edgeStyle=orthogonalEdgeStyle;rounded=0;orthogonalLoop=1;jettySize=auto;html=1;exitX=0.5;exitY=1;exitDx=0;exitDy=0;entryX=0.5;entryY=0;entryDx=0;entryDy=0;" parent="1" source="VqrO-3gcOEbuM5ed-gqK-415" target="VqrO-3gcOEbuM5ed-gqK-309" edge="1">
          <mxGeometry relative="1" as="geometry" />
        </mxCell>
        <mxCell id="VqrO-3gcOEbuM5ed-gqK-415" value="Instruction Bytes Shift" style="text;html=1;align=center;verticalAlign=middle;whiteSpace=wrap;rounded=0;" parent="1" vertex="1">
          <mxGeometry x="-440" y="-490" width="60" height="30" as="geometry" />
        </mxCell>
        <mxCell id="VqrO-3gcOEbuM5ed-gqK-419" value="Length Decode states" style="text;html=1;align=center;verticalAlign=middle;whiteSpace=wrap;rounded=0;fontSize=14;" parent="1" vertex="1">
          <mxGeometry x="-600" y="-530" width="220" height="30" as="geometry" />
        </mxCell>
        <mxCell id="VqrO-3gcOEbuM5ed-gqK-420" value="pra" style="text;html=1;align=center;verticalAlign=middle;whiteSpace=wrap;rounded=0;" parent="1" vertex="1">
          <mxGeometry x="-300" y="-580" width="30" height="20" as="geometry" />
        </mxCell>
        <mxCell id="VqrO-3gcOEbuM5ed-gqK-450" value="en" style="text;html=1;align=center;verticalAlign=middle;whiteSpace=wrap;rounded=0;" parent="1" vertex="1">
          <mxGeometry x="-270" y="-580" width="30" height="20" as="geometry" />
        </mxCell>
        <mxCell id="VqrO-3gcOEbuM5ed-gqK-451" value="ip" style="text;html=1;align=center;verticalAlign=middle;whiteSpace=wrap;rounded=0;" parent="1" vertex="1">
          <mxGeometry x="-240" y="-580" width="30" height="20" as="geometry" />
        </mxCell>
        <mxCell id="VqrO-3gcOEbuM5ed-gqK-566" style="edgeStyle=orthogonalEdgeStyle;rounded=0;orthogonalLoop=1;jettySize=auto;html=1;exitX=0.5;exitY=1;exitDx=0;exitDy=0;" parent="1" source="VqrO-3gcOEbuM5ed-gqK-452" target="VqrO-3gcOEbuM5ed-gqK-420" edge="1">
          <mxGeometry relative="1" as="geometry" />
        </mxCell>
        <mxCell id="VqrO-3gcOEbuM5ed-gqK-452" value="Physical Register(s) Available" style="text;html=1;align=center;verticalAlign=middle;whiteSpace=wrap;rounded=0;" parent="1" vertex="1">
          <mxGeometry x="-400" y="-650" width="120" height="30" as="geometry" />
        </mxCell>
        <mxCell id="VqrO-3gcOEbuM5ed-gqK-565" style="edgeStyle=orthogonalEdgeStyle;rounded=0;orthogonalLoop=1;jettySize=auto;html=1;exitX=0.5;exitY=1;exitDx=0;exitDy=0;entryX=0.5;entryY=0;entryDx=0;entryDy=0;" parent="1" source="VqrO-3gcOEbuM5ed-gqK-454" target="VqrO-3gcOEbuM5ed-gqK-451" edge="1">
          <mxGeometry relative="1" as="geometry" />
        </mxCell>
        <mxCell id="VqrO-3gcOEbuM5ed-gqK-454" value="Instruction Present" style="text;html=1;align=center;verticalAlign=middle;whiteSpace=wrap;rounded=0;" parent="1" vertex="1">
          <mxGeometry x="-270" y="-650" width="120" height="30" as="geometry" />
        </mxCell>
        <mxCell id="VqrO-3gcOEbuM5ed-gqK-455" value="|" style="text;html=1;align=center;verticalAlign=middle;whiteSpace=wrap;rounded=0;" parent="1" vertex="1">
          <mxGeometry x="-210" y="-580" width="30" height="20" as="geometry" />
        </mxCell>
        <mxCell id="VqrO-3gcOEbuM5ed-gqK-456" value="dn" style="text;html=1;align=center;verticalAlign=middle;whiteSpace=wrap;rounded=0;" parent="1" vertex="1">
          <mxGeometry x="-180" y="-580" width="30" height="20" as="geometry" />
        </mxCell>
        <mxCell id="VqrO-3gcOEbuM5ed-gqK-457" value="apr" style="text;html=1;align=center;verticalAlign=middle;whiteSpace=wrap;rounded=0;" parent="1" vertex="1">
          <mxGeometry x="-150" y="-580" width="30" height="20" as="geometry" />
        </mxCell>
        <mxCell id="VqrO-3gcOEbuM5ed-gqK-460" value="|" style="text;html=1;align=center;verticalAlign=middle;whiteSpace=wrap;rounded=0;" parent="1" vertex="1">
          <mxGeometry x="-210" y="-560" width="30" height="20" as="geometry" />
        </mxCell>
        <mxCell id="VqrO-3gcOEbuM5ed-gqK-461" value="0" style="text;html=1;align=center;verticalAlign=middle;whiteSpace=wrap;rounded=0;" parent="1" vertex="1">
          <mxGeometry x="-240" y="-560" width="30" height="20" as="geometry" />
        </mxCell>
        <mxCell id="VqrO-3gcOEbuM5ed-gqK-462" value="0" style="text;html=1;align=center;verticalAlign=middle;whiteSpace=wrap;rounded=0;" parent="1" vertex="1">
          <mxGeometry x="-270" y="-560" width="30" height="20" as="geometry" />
        </mxCell>
        <mxCell id="VqrO-3gcOEbuM5ed-gqK-463" value="0" style="text;html=1;align=center;verticalAlign=middle;whiteSpace=wrap;rounded=0;" parent="1" vertex="1">
          <mxGeometry x="-300" y="-560" width="30" height="20" as="geometry" />
        </mxCell>
        <mxCell id="VqrO-3gcOEbuM5ed-gqK-464" value="0" style="text;html=1;align=center;verticalAlign=middle;whiteSpace=wrap;rounded=0;" parent="1" vertex="1">
          <mxGeometry x="-180" y="-560" width="30" height="20" as="geometry" />
        </mxCell>
        <mxCell id="VqrO-3gcOEbuM5ed-gqK-465" value="0" style="text;html=1;align=center;verticalAlign=middle;whiteSpace=wrap;rounded=0;" parent="1" vertex="1">
          <mxGeometry x="-150" y="-560" width="30" height="20" as="geometry" />
        </mxCell>
        <mxCell id="VqrO-3gcOEbuM5ed-gqK-466" value="|" style="text;html=1;align=center;verticalAlign=middle;whiteSpace=wrap;rounded=0;" parent="1" vertex="1">
          <mxGeometry x="-210" y="-540" width="30" height="20" as="geometry" />
        </mxCell>
        <mxCell id="VqrO-3gcOEbuM5ed-gqK-467" value="1" style="text;html=1;align=center;verticalAlign=middle;whiteSpace=wrap;rounded=0;" parent="1" vertex="1">
          <mxGeometry x="-240" y="-540" width="30" height="20" as="geometry" />
        </mxCell>
        <mxCell id="VqrO-3gcOEbuM5ed-gqK-468" value="0" style="text;html=1;align=center;verticalAlign=middle;whiteSpace=wrap;rounded=0;" parent="1" vertex="1">
          <mxGeometry x="-270" y="-540" width="30" height="20" as="geometry" />
        </mxCell>
        <mxCell id="VqrO-3gcOEbuM5ed-gqK-469" value="0" style="text;html=1;align=center;verticalAlign=middle;whiteSpace=wrap;rounded=0;" parent="1" vertex="1">
          <mxGeometry x="-300" y="-540" width="30" height="20" as="geometry" />
        </mxCell>
        <mxCell id="VqrO-3gcOEbuM5ed-gqK-470" value="0" style="text;html=1;align=center;verticalAlign=middle;whiteSpace=wrap;rounded=0;" parent="1" vertex="1">
          <mxGeometry x="-180" y="-540" width="30" height="20" as="geometry" />
        </mxCell>
        <mxCell id="VqrO-3gcOEbuM5ed-gqK-471" value="0" style="text;html=1;align=center;verticalAlign=middle;whiteSpace=wrap;rounded=0;" parent="1" vertex="1">
          <mxGeometry x="-150" y="-540" width="30" height="20" as="geometry" />
        </mxCell>
        <mxCell id="VqrO-3gcOEbuM5ed-gqK-472" value="|" style="text;html=1;align=center;verticalAlign=middle;whiteSpace=wrap;rounded=0;" parent="1" vertex="1">
          <mxGeometry x="-210" y="-520" width="30" height="20" as="geometry" />
        </mxCell>
        <mxCell id="VqrO-3gcOEbuM5ed-gqK-473" value="1" style="text;html=1;align=center;verticalAlign=middle;whiteSpace=wrap;rounded=0;" parent="1" vertex="1">
          <mxGeometry x="-240" y="-520" width="30" height="20" as="geometry" />
        </mxCell>
        <mxCell id="VqrO-3gcOEbuM5ed-gqK-474" value="1" style="text;html=1;align=center;verticalAlign=middle;whiteSpace=wrap;rounded=0;" parent="1" vertex="1">
          <mxGeometry x="-270" y="-520" width="30" height="20" as="geometry" />
        </mxCell>
        <mxCell id="VqrO-3gcOEbuM5ed-gqK-475" value="0" style="text;html=1;align=center;verticalAlign=middle;whiteSpace=wrap;rounded=0;" parent="1" vertex="1">
          <mxGeometry x="-300" y="-520" width="30" height="20" as="geometry" />
        </mxCell>
        <mxCell id="VqrO-3gcOEbuM5ed-gqK-476" value="0" style="text;html=1;align=center;verticalAlign=middle;whiteSpace=wrap;rounded=0;" parent="1" vertex="1">
          <mxGeometry x="-180" y="-520" width="30" height="20" as="geometry" />
        </mxCell>
        <mxCell id="VqrO-3gcOEbuM5ed-gqK-477" value="0" style="text;html=1;align=center;verticalAlign=middle;whiteSpace=wrap;rounded=0;" parent="1" vertex="1">
          <mxGeometry x="-150" y="-520" width="30" height="20" as="geometry" />
        </mxCell>
        <mxCell id="VqrO-3gcOEbuM5ed-gqK-478" value="|" style="text;html=1;align=center;verticalAlign=middle;whiteSpace=wrap;rounded=0;" parent="1" vertex="1">
          <mxGeometry x="-210" y="-500" width="30" height="20" as="geometry" />
        </mxCell>
        <mxCell id="VqrO-3gcOEbuM5ed-gqK-479" value="0" style="text;html=1;align=center;verticalAlign=middle;whiteSpace=wrap;rounded=0;" parent="1" vertex="1">
          <mxGeometry x="-240" y="-500" width="30" height="20" as="geometry" />
        </mxCell>
        <mxCell id="VqrO-3gcOEbuM5ed-gqK-480" value="1" style="text;html=1;align=center;verticalAlign=middle;whiteSpace=wrap;rounded=0;" parent="1" vertex="1">
          <mxGeometry x="-270" y="-500" width="30" height="20" as="geometry" />
        </mxCell>
        <mxCell id="VqrO-3gcOEbuM5ed-gqK-481" value="0" style="text;html=1;align=center;verticalAlign=middle;whiteSpace=wrap;rounded=0;" parent="1" vertex="1">
          <mxGeometry x="-300" y="-500" width="30" height="20" as="geometry" />
        </mxCell>
        <mxCell id="VqrO-3gcOEbuM5ed-gqK-482" value="0" style="text;html=1;align=center;verticalAlign=middle;whiteSpace=wrap;rounded=0;" parent="1" vertex="1">
          <mxGeometry x="-180" y="-500" width="30" height="20" as="geometry" />
        </mxCell>
        <mxCell id="VqrO-3gcOEbuM5ed-gqK-483" value="0" style="text;html=1;align=center;verticalAlign=middle;whiteSpace=wrap;rounded=0;" parent="1" vertex="1">
          <mxGeometry x="-150" y="-500" width="30" height="20" as="geometry" />
        </mxCell>
        <mxCell id="VqrO-3gcOEbuM5ed-gqK-514" value="|" style="text;html=1;align=center;verticalAlign=middle;whiteSpace=wrap;rounded=0;" parent="1" vertex="1">
          <mxGeometry x="-210" y="-480" width="30" height="20" as="geometry" />
        </mxCell>
        <mxCell id="VqrO-3gcOEbuM5ed-gqK-515" value="0" style="text;html=1;align=center;verticalAlign=middle;whiteSpace=wrap;rounded=0;" parent="1" vertex="1">
          <mxGeometry x="-240" y="-480" width="30" height="20" as="geometry" />
        </mxCell>
        <mxCell id="VqrO-3gcOEbuM5ed-gqK-516" value="1" style="text;html=1;align=center;verticalAlign=middle;whiteSpace=wrap;rounded=0;" parent="1" vertex="1">
          <mxGeometry x="-270" y="-480" width="30" height="20" as="geometry" />
        </mxCell>
        <mxCell id="VqrO-3gcOEbuM5ed-gqK-517" value="1" style="text;html=1;align=center;verticalAlign=middle;whiteSpace=wrap;rounded=0;" parent="1" vertex="1">
          <mxGeometry x="-300" y="-480" width="30" height="20" as="geometry" />
        </mxCell>
        <mxCell id="VqrO-3gcOEbuM5ed-gqK-518" value="0" style="text;html=1;align=center;verticalAlign=middle;whiteSpace=wrap;rounded=0;" parent="1" vertex="1">
          <mxGeometry x="-180" y="-480" width="30" height="20" as="geometry" />
        </mxCell>
        <mxCell id="VqrO-3gcOEbuM5ed-gqK-519" value="0" style="text;html=1;align=center;verticalAlign=middle;whiteSpace=wrap;rounded=0;" parent="1" vertex="1">
          <mxGeometry x="-150" y="-480" width="30" height="20" as="geometry" />
        </mxCell>
        <mxCell id="VqrO-3gcOEbuM5ed-gqK-520" value="|" style="text;html=1;align=center;verticalAlign=middle;whiteSpace=wrap;rounded=0;" parent="1" vertex="1">
          <mxGeometry x="-210" y="-460" width="30" height="20" as="geometry" />
        </mxCell>
        <mxCell id="VqrO-3gcOEbuM5ed-gqK-521" value="1" style="text;html=1;align=center;verticalAlign=middle;whiteSpace=wrap;rounded=0;" parent="1" vertex="1">
          <mxGeometry x="-240" y="-460" width="30" height="20" as="geometry" />
        </mxCell>
        <mxCell id="VqrO-3gcOEbuM5ed-gqK-522" value="1" style="text;html=1;align=center;verticalAlign=middle;whiteSpace=wrap;rounded=0;" parent="1" vertex="1">
          <mxGeometry x="-270" y="-460" width="30" height="20" as="geometry" />
        </mxCell>
        <mxCell id="VqrO-3gcOEbuM5ed-gqK-523" value="1" style="text;html=1;align=center;verticalAlign=middle;whiteSpace=wrap;rounded=0;" parent="1" vertex="1">
          <mxGeometry x="-300" y="-460" width="30" height="20" as="geometry" />
        </mxCell>
        <mxCell id="VqrO-3gcOEbuM5ed-gqK-524" value="1" style="text;html=1;align=center;verticalAlign=middle;whiteSpace=wrap;rounded=0;" parent="1" vertex="1">
          <mxGeometry x="-180" y="-460" width="30" height="20" as="geometry" />
        </mxCell>
        <mxCell id="VqrO-3gcOEbuM5ed-gqK-525" value="1" style="text;html=1;align=center;verticalAlign=middle;whiteSpace=wrap;rounded=0;" parent="1" vertex="1">
          <mxGeometry x="-150" y="-460" width="30" height="20" as="geometry" />
        </mxCell>
        <mxCell id="VqrO-3gcOEbuM5ed-gqK-532" value="|" style="text;html=1;align=center;verticalAlign=middle;whiteSpace=wrap;rounded=0;" parent="1" vertex="1">
          <mxGeometry x="-210" y="-440" width="30" height="20" as="geometry" />
        </mxCell>
        <mxCell id="VqrO-3gcOEbuM5ed-gqK-533" value="1" style="text;html=1;align=center;verticalAlign=middle;whiteSpace=wrap;rounded=0;" parent="1" vertex="1">
          <mxGeometry x="-240" y="-440" width="30" height="20" as="geometry" />
        </mxCell>
        <mxCell id="VqrO-3gcOEbuM5ed-gqK-534" value="0" style="text;html=1;align=center;verticalAlign=middle;whiteSpace=wrap;rounded=0;" parent="1" vertex="1">
          <mxGeometry x="-270" y="-440" width="30" height="20" as="geometry" />
        </mxCell>
        <mxCell id="VqrO-3gcOEbuM5ed-gqK-535" value="1" style="text;html=1;align=center;verticalAlign=middle;whiteSpace=wrap;rounded=0;" parent="1" vertex="1">
          <mxGeometry x="-300" y="-440" width="30" height="20" as="geometry" />
        </mxCell>
        <mxCell id="VqrO-3gcOEbuM5ed-gqK-536" value="1" style="text;html=1;align=center;verticalAlign=middle;whiteSpace=wrap;rounded=0;" parent="1" vertex="1">
          <mxGeometry x="-180" y="-440" width="30" height="20" as="geometry" />
        </mxCell>
        <mxCell id="VqrO-3gcOEbuM5ed-gqK-537" value="0" style="text;html=1;align=center;verticalAlign=middle;whiteSpace=wrap;rounded=0;" parent="1" vertex="1">
          <mxGeometry x="-150" y="-440" width="30" height="20" as="geometry" />
        </mxCell>
        <mxCell id="VqrO-3gcOEbuM5ed-gqK-538" value="|" style="text;html=1;align=center;verticalAlign=middle;whiteSpace=wrap;rounded=0;" parent="1" vertex="1">
          <mxGeometry x="-210" y="-420" width="30" height="20" as="geometry" />
        </mxCell>
        <mxCell id="VqrO-3gcOEbuM5ed-gqK-539" value="0" style="text;html=1;align=center;verticalAlign=middle;whiteSpace=wrap;rounded=0;" parent="1" vertex="1">
          <mxGeometry x="-240" y="-420" width="30" height="20" as="geometry" />
        </mxCell>
        <mxCell id="VqrO-3gcOEbuM5ed-gqK-540" value="0" style="text;html=1;align=center;verticalAlign=middle;whiteSpace=wrap;rounded=0;" parent="1" vertex="1">
          <mxGeometry x="-270" y="-420" width="30" height="20" as="geometry" />
        </mxCell>
        <mxCell id="VqrO-3gcOEbuM5ed-gqK-541" value="1" style="text;html=1;align=center;verticalAlign=middle;whiteSpace=wrap;rounded=0;" parent="1" vertex="1">
          <mxGeometry x="-300" y="-420" width="30" height="20" as="geometry" />
        </mxCell>
        <mxCell id="VqrO-3gcOEbuM5ed-gqK-542" value="0" style="text;html=1;align=center;verticalAlign=middle;whiteSpace=wrap;rounded=0;" parent="1" vertex="1">
          <mxGeometry x="-180" y="-420" width="30" height="20" as="geometry" />
        </mxCell>
        <mxCell id="VqrO-3gcOEbuM5ed-gqK-543" value="0" style="text;html=1;align=center;verticalAlign=middle;whiteSpace=wrap;rounded=0;" parent="1" vertex="1">
          <mxGeometry x="-150" y="-420" width="30" height="20" as="geometry" />
        </mxCell>
        <mxCell id="VqrO-3gcOEbuM5ed-gqK-550" value="" style="endArrow=classic;html=1;rounded=0;" parent="1" edge="1">
          <mxGeometry width="50" height="50" relative="1" as="geometry">
            <mxPoint x="-160" y="160" as="sourcePoint" />
            <mxPoint x="-80" y="80" as="targetPoint" />
          </mxGeometry>
        </mxCell>
        <mxCell id="VqrO-3gcOEbuM5ed-gqK-551" value="" style="endArrow=classic;html=1;rounded=0;" parent="1" edge="1">
          <mxGeometry width="50" height="50" relative="1" as="geometry">
            <mxPoint x="-80" y="80" as="sourcePoint" />
            <mxPoint x="80" as="targetPoint" />
          </mxGeometry>
        </mxCell>
        <mxCell id="VqrO-3gcOEbuM5ed-gqK-552" value="" style="endArrow=classic;html=1;rounded=0;" parent="1" edge="1">
          <mxGeometry width="50" height="50" relative="1" as="geometry">
            <mxPoint x="-80" y="160" as="sourcePoint" />
            <mxPoint x="80" y="80" as="targetPoint" />
          </mxGeometry>
        </mxCell>
        <mxCell id="VqrO-3gcOEbuM5ed-gqK-553" value="" style="endArrow=classic;html=1;rounded=0;" parent="1" edge="1">
          <mxGeometry width="50" height="50" relative="1" as="geometry">
            <mxPoint x="80" y="80" as="sourcePoint" />
            <mxPoint x="160" as="targetPoint" />
          </mxGeometry>
        </mxCell>
        <mxCell id="VqrO-3gcOEbuM5ed-gqK-554" value="EN" style="text;html=1;align=center;verticalAlign=middle;whiteSpace=wrap;rounded=0;" parent="1" vertex="1">
          <mxGeometry x="340" y="-155" width="60" height="30" as="geometry" />
        </mxCell>
        <mxCell id="VqrO-3gcOEbuM5ed-gqK-555" value="EN" style="text;html=1;align=center;verticalAlign=middle;whiteSpace=wrap;rounded=0;" parent="1" vertex="1">
          <mxGeometry x="340" y="-235" width="60" height="30" as="geometry" />
        </mxCell>
        <mxCell id="VqrO-3gcOEbuM5ed-gqK-556" value="EN" style="text;html=1;align=center;verticalAlign=middle;whiteSpace=wrap;rounded=0;" parent="1" vertex="1">
          <mxGeometry x="340" y="-315" width="60" height="30" as="geometry" />
        </mxCell>
        <mxCell id="VqrO-3gcOEbuM5ed-gqK-557" value="" style="endArrow=classic;html=1;rounded=0;" parent="1" edge="1">
          <mxGeometry width="50" height="50" relative="1" as="geometry">
            <mxPoint x="80" as="sourcePoint" />
            <mxPoint x="160" y="-80" as="targetPoint" />
          </mxGeometry>
        </mxCell>
        <mxCell id="VqrO-3gcOEbuM5ed-gqK-561" value="" style="endArrow=classic;html=1;rounded=0;" parent="1" edge="1">
          <mxGeometry width="50" height="50" relative="1" as="geometry">
            <mxPoint x="160" y="80" as="sourcePoint" />
            <mxPoint x="240" as="targetPoint" />
          </mxGeometry>
        </mxCell>
        <mxCell id="VqrO-3gcOEbuM5ed-gqK-562" value="" style="endArrow=classic;html=1;rounded=0;" parent="1" edge="1">
          <mxGeometry width="50" height="50" relative="1" as="geometry">
            <mxPoint x="160" as="sourcePoint" />
            <mxPoint x="240" y="-80" as="targetPoint" />
          </mxGeometry>
        </mxCell>
        <mxCell id="VqrO-3gcOEbuM5ed-gqK-564" style="edgeStyle=orthogonalEdgeStyle;rounded=0;orthogonalLoop=1;jettySize=auto;html=1;exitX=0.5;exitY=1;exitDx=0;exitDy=0;entryX=0.5;entryY=0;entryDx=0;entryDy=0;" parent="1" source="VqrO-3gcOEbuM5ed-gqK-563" target="VqrO-3gcOEbuM5ed-gqK-457" edge="1">
          <mxGeometry relative="1" as="geometry" />
        </mxCell>
        <mxCell id="VqrO-3gcOEbuM5ed-gqK-563" value="Allocate Physical Register(s)" style="text;html=1;align=center;verticalAlign=middle;whiteSpace=wrap;rounded=0;" parent="1" vertex="1">
          <mxGeometry x="-150" y="-650" width="120" height="30" as="geometry" />
        </mxCell>
        <mxCell id="VqrO-3gcOEbuM5ed-gqK-567" value="uop &amp;amp; PR decode states" style="text;html=1;align=center;verticalAlign=middle;whiteSpace=wrap;rounded=0;fontSize=14;" parent="1" vertex="1">
          <mxGeometry x="-335" y="-700" width="220" height="30" as="geometry" />
        </mxCell>
        <mxCell id="VqrO-3gcOEbuM5ed-gqK-568" value="" style="endArrow=classic;html=1;rounded=0;" parent="1" edge="1">
          <mxGeometry width="50" height="50" relative="1" as="geometry">
            <mxPoint x="80" y="160" as="sourcePoint" />
            <mxPoint x="160" y="80" as="targetPoint" />
          </mxGeometry>
        </mxCell>
        <mxCell id="VqrO-3gcOEbuM5ed-gqK-569" value="rob" style="text;html=1;align=center;verticalAlign=middle;whiteSpace=wrap;rounded=0;" parent="1" vertex="1">
          <mxGeometry x="80" y="-580" width="30" height="20" as="geometry" />
        </mxCell>
        <mxCell id="VqrO-3gcOEbuM5ed-gqK-570" value="sch" style="text;html=1;align=center;verticalAlign=middle;whiteSpace=wrap;rounded=0;" parent="1" vertex="1">
          <mxGeometry x="110" y="-580" width="30" height="20" as="geometry" />
        </mxCell>
        <mxCell id="VqrO-3gcOEbuM5ed-gqK-571" value="psi" style="text;html=1;align=center;verticalAlign=middle;whiteSpace=wrap;rounded=0;" parent="1" vertex="1">
          <mxGeometry x="140" y="-580" width="30" height="20" as="geometry" />
        </mxCell>
        <mxCell id="VqrO-3gcOEbuM5ed-gqK-575" style="edgeStyle=orthogonalEdgeStyle;rounded=0;orthogonalLoop=1;jettySize=auto;html=1;exitX=0.5;exitY=1;exitDx=0;exitDy=0;entryX=0.5;entryY=0;entryDx=0;entryDy=0;" parent="1" source="VqrO-3gcOEbuM5ed-gqK-572" target="VqrO-3gcOEbuM5ed-gqK-569" edge="1">
          <mxGeometry relative="1" as="geometry" />
        </mxCell>
        <mxCell id="VqrO-3gcOEbuM5ed-gqK-572" value="ROB has enough slots" style="text;html=1;align=center;verticalAlign=middle;whiteSpace=wrap;rounded=0;" parent="1" vertex="1">
          <mxGeometry y="-650" width="80" height="30" as="geometry" />
        </mxCell>
        <mxCell id="VqrO-3gcOEbuM5ed-gqK-576" style="edgeStyle=orthogonalEdgeStyle;rounded=0;orthogonalLoop=1;jettySize=auto;html=1;exitX=0.5;exitY=1;exitDx=0;exitDy=0;entryX=0.5;entryY=0;entryDx=0;entryDy=0;" parent="1" source="VqrO-3gcOEbuM5ed-gqK-573" target="VqrO-3gcOEbuM5ed-gqK-570" edge="1">
          <mxGeometry relative="1" as="geometry" />
        </mxCell>
        <mxCell id="VqrO-3gcOEbuM5ed-gqK-573" value="Scheduler has enough slots" style="text;html=1;align=center;verticalAlign=middle;whiteSpace=wrap;rounded=0;" parent="1" vertex="1">
          <mxGeometry x="80" y="-650" width="80" height="30" as="geometry" />
        </mxCell>
        <mxCell id="VqrO-3gcOEbuM5ed-gqK-577" style="edgeStyle=orthogonalEdgeStyle;rounded=0;orthogonalLoop=1;jettySize=auto;html=1;exitX=0.5;exitY=1;exitDx=0;exitDy=0;entryX=0.5;entryY=0;entryDx=0;entryDy=0;" parent="1" source="VqrO-3gcOEbuM5ed-gqK-574" target="VqrO-3gcOEbuM5ed-gqK-571" edge="1">
          <mxGeometry relative="1" as="geometry" />
        </mxCell>
        <mxCell id="VqrO-3gcOEbuM5ed-gqK-574" value="previous stage input present" style="text;html=1;align=center;verticalAlign=middle;whiteSpace=wrap;rounded=0;" parent="1" vertex="1">
          <mxGeometry x="160" y="-650" width="90" height="30" as="geometry" />
        </mxCell>
        <mxCell id="VqrO-3gcOEbuM5ed-gqK-578" value="|" style="text;html=1;align=center;verticalAlign=middle;whiteSpace=wrap;rounded=0;" parent="1" vertex="1">
          <mxGeometry x="170" y="-580" width="30" height="20" as="geometry" />
        </mxCell>
        <mxCell id="VqrO-3gcOEbuM5ed-gqK-579" value="dn" style="text;html=1;align=center;verticalAlign=middle;whiteSpace=wrap;rounded=0;" parent="1" vertex="1">
          <mxGeometry x="200" y="-580" width="30" height="20" as="geometry" />
        </mxCell>
        <mxCell id="VqrO-3gcOEbuM5ed-gqK-580" value="wrf" style="text;html=1;align=center;verticalAlign=middle;whiteSpace=wrap;rounded=0;" parent="1" vertex="1">
          <mxGeometry x="230" y="-580" width="30" height="20" as="geometry" />
        </mxCell>
        <mxCell id="VqrO-3gcOEbuM5ed-gqK-581" value="wat" style="text;html=1;align=center;verticalAlign=middle;whiteSpace=wrap;rounded=0;" parent="1" vertex="1">
          <mxGeometry x="260" y="-580" width="30" height="20" as="geometry" />
        </mxCell>
        <mxCell id="VqrO-3gcOEbuM5ed-gqK-584" style="edgeStyle=orthogonalEdgeStyle;rounded=0;orthogonalLoop=1;jettySize=auto;html=1;exitX=0.5;exitY=1;exitDx=0;exitDy=0;entryX=0.5;entryY=0;entryDx=0;entryDy=0;" parent="1" source="VqrO-3gcOEbuM5ed-gqK-582" target="VqrO-3gcOEbuM5ed-gqK-580" edge="1">
          <mxGeometry relative="1" as="geometry">
            <Array as="points">
              <mxPoint x="275" y="-610" />
              <mxPoint x="260" y="-610" />
              <mxPoint x="260" y="-600" />
              <mxPoint x="245" y="-600" />
            </Array>
          </mxGeometry>
        </mxCell>
        <mxCell id="VqrO-3gcOEbuM5ed-gqK-582" value="Write to RF" style="text;html=1;align=center;verticalAlign=middle;whiteSpace=wrap;rounded=0;" parent="1" vertex="1">
          <mxGeometry x="247.5" y="-650" width="55" height="30" as="geometry" />
        </mxCell>
        <mxCell id="VqrO-3gcOEbuM5ed-gqK-585" style="edgeStyle=orthogonalEdgeStyle;rounded=0;orthogonalLoop=1;jettySize=auto;html=1;exitX=0.5;exitY=1;exitDx=0;exitDy=0;" parent="1" source="VqrO-3gcOEbuM5ed-gqK-583" target="VqrO-3gcOEbuM5ed-gqK-581" edge="1">
          <mxGeometry relative="1" as="geometry" />
        </mxCell>
        <mxCell id="VqrO-3gcOEbuM5ed-gqK-583" value="Write to RAT" style="text;html=1;align=center;verticalAlign=middle;whiteSpace=wrap;rounded=0;" parent="1" vertex="1">
          <mxGeometry x="302.5" y="-650" width="57.5" height="30" as="geometry" />
        </mxCell>
        <mxCell id="VqrO-3gcOEbuM5ed-gqK-669" value="|" style="text;html=1;align=center;verticalAlign=middle;whiteSpace=wrap;rounded=0;" parent="1" vertex="1">
          <mxGeometry x="170" y="-560" width="30" height="20" as="geometry" />
        </mxCell>
        <mxCell id="VqrO-3gcOEbuM5ed-gqK-670" value="0" style="text;html=1;align=center;verticalAlign=middle;whiteSpace=wrap;rounded=0;" parent="1" vertex="1">
          <mxGeometry x="140" y="-560" width="30" height="20" as="geometry" />
        </mxCell>
        <mxCell id="VqrO-3gcOEbuM5ed-gqK-671" value="0" style="text;html=1;align=center;verticalAlign=middle;whiteSpace=wrap;rounded=0;" parent="1" vertex="1">
          <mxGeometry x="110" y="-560" width="30" height="20" as="geometry" />
        </mxCell>
        <mxCell id="VqrO-3gcOEbuM5ed-gqK-672" value="0" style="text;html=1;align=center;verticalAlign=middle;whiteSpace=wrap;rounded=0;" parent="1" vertex="1">
          <mxGeometry x="80" y="-560" width="30" height="20" as="geometry" />
        </mxCell>
        <mxCell id="VqrO-3gcOEbuM5ed-gqK-673" value="0" style="text;html=1;align=center;verticalAlign=middle;whiteSpace=wrap;rounded=0;" parent="1" vertex="1">
          <mxGeometry x="200" y="-560" width="30" height="20" as="geometry" />
        </mxCell>
        <mxCell id="VqrO-3gcOEbuM5ed-gqK-674" value="0" style="text;html=1;align=center;verticalAlign=middle;whiteSpace=wrap;rounded=0;" parent="1" vertex="1">
          <mxGeometry x="230" y="-560" width="30" height="20" as="geometry" />
        </mxCell>
        <mxCell id="VqrO-3gcOEbuM5ed-gqK-675" value="|" style="text;html=1;align=center;verticalAlign=middle;whiteSpace=wrap;rounded=0;" parent="1" vertex="1">
          <mxGeometry x="170" y="-540" width="30" height="20" as="geometry" />
        </mxCell>
        <mxCell id="VqrO-3gcOEbuM5ed-gqK-676" value="1" style="text;html=1;align=center;verticalAlign=middle;whiteSpace=wrap;rounded=0;" parent="1" vertex="1">
          <mxGeometry x="140" y="-540" width="30" height="20" as="geometry" />
        </mxCell>
        <mxCell id="VqrO-3gcOEbuM5ed-gqK-677" value="0" style="text;html=1;align=center;verticalAlign=middle;whiteSpace=wrap;rounded=0;" parent="1" vertex="1">
          <mxGeometry x="110" y="-540" width="30" height="20" as="geometry" />
        </mxCell>
        <mxCell id="VqrO-3gcOEbuM5ed-gqK-678" value="0" style="text;html=1;align=center;verticalAlign=middle;whiteSpace=wrap;rounded=0;" parent="1" vertex="1">
          <mxGeometry x="80" y="-540" width="30" height="20" as="geometry" />
        </mxCell>
        <mxCell id="VqrO-3gcOEbuM5ed-gqK-679" value="0" style="text;html=1;align=center;verticalAlign=middle;whiteSpace=wrap;rounded=0;" parent="1" vertex="1">
          <mxGeometry x="200" y="-540" width="30" height="20" as="geometry" />
        </mxCell>
        <mxCell id="VqrO-3gcOEbuM5ed-gqK-680" value="0" style="text;html=1;align=center;verticalAlign=middle;whiteSpace=wrap;rounded=0;" parent="1" vertex="1">
          <mxGeometry x="230" y="-540" width="30" height="20" as="geometry" />
        </mxCell>
        <mxCell id="VqrO-3gcOEbuM5ed-gqK-681" value="|" style="text;html=1;align=center;verticalAlign=middle;whiteSpace=wrap;rounded=0;" parent="1" vertex="1">
          <mxGeometry x="170" y="-520" width="30" height="20" as="geometry" />
        </mxCell>
        <mxCell id="VqrO-3gcOEbuM5ed-gqK-682" value="1" style="text;html=1;align=center;verticalAlign=middle;whiteSpace=wrap;rounded=0;" parent="1" vertex="1">
          <mxGeometry x="140" y="-520" width="30" height="20" as="geometry" />
        </mxCell>
        <mxCell id="VqrO-3gcOEbuM5ed-gqK-683" value="1" style="text;html=1;align=center;verticalAlign=middle;whiteSpace=wrap;rounded=0;" parent="1" vertex="1">
          <mxGeometry x="110" y="-520" width="30" height="20" as="geometry" />
        </mxCell>
        <mxCell id="VqrO-3gcOEbuM5ed-gqK-684" value="0" style="text;html=1;align=center;verticalAlign=middle;whiteSpace=wrap;rounded=0;" parent="1" vertex="1">
          <mxGeometry x="80" y="-520" width="30" height="20" as="geometry" />
        </mxCell>
        <mxCell id="VqrO-3gcOEbuM5ed-gqK-685" value="0" style="text;html=1;align=center;verticalAlign=middle;whiteSpace=wrap;rounded=0;" parent="1" vertex="1">
          <mxGeometry x="200" y="-520" width="30" height="20" as="geometry" />
        </mxCell>
        <mxCell id="VqrO-3gcOEbuM5ed-gqK-686" value="0" style="text;html=1;align=center;verticalAlign=middle;whiteSpace=wrap;rounded=0;" parent="1" vertex="1">
          <mxGeometry x="230" y="-520" width="30" height="20" as="geometry" />
        </mxCell>
        <mxCell id="VqrO-3gcOEbuM5ed-gqK-687" value="|" style="text;html=1;align=center;verticalAlign=middle;whiteSpace=wrap;rounded=0;" parent="1" vertex="1">
          <mxGeometry x="170" y="-500" width="30" height="20" as="geometry" />
        </mxCell>
        <mxCell id="VqrO-3gcOEbuM5ed-gqK-688" value="0" style="text;html=1;align=center;verticalAlign=middle;whiteSpace=wrap;rounded=0;" parent="1" vertex="1">
          <mxGeometry x="140" y="-500" width="30" height="20" as="geometry" />
        </mxCell>
        <mxCell id="VqrO-3gcOEbuM5ed-gqK-689" value="1" style="text;html=1;align=center;verticalAlign=middle;whiteSpace=wrap;rounded=0;" parent="1" vertex="1">
          <mxGeometry x="110" y="-500" width="30" height="20" as="geometry" />
        </mxCell>
        <mxCell id="VqrO-3gcOEbuM5ed-gqK-690" value="0" style="text;html=1;align=center;verticalAlign=middle;whiteSpace=wrap;rounded=0;" parent="1" vertex="1">
          <mxGeometry x="80" y="-500" width="30" height="20" as="geometry" />
        </mxCell>
        <mxCell id="VqrO-3gcOEbuM5ed-gqK-691" value="0" style="text;html=1;align=center;verticalAlign=middle;whiteSpace=wrap;rounded=0;" parent="1" vertex="1">
          <mxGeometry x="200" y="-500" width="30" height="20" as="geometry" />
        </mxCell>
        <mxCell id="VqrO-3gcOEbuM5ed-gqK-692" value="0" style="text;html=1;align=center;verticalAlign=middle;whiteSpace=wrap;rounded=0;" parent="1" vertex="1">
          <mxGeometry x="230" y="-500" width="30" height="20" as="geometry" />
        </mxCell>
        <mxCell id="VqrO-3gcOEbuM5ed-gqK-693" value="|" style="text;html=1;align=center;verticalAlign=middle;whiteSpace=wrap;rounded=0;" parent="1" vertex="1">
          <mxGeometry x="170" y="-480" width="30" height="20" as="geometry" />
        </mxCell>
        <mxCell id="VqrO-3gcOEbuM5ed-gqK-694" value="0" style="text;html=1;align=center;verticalAlign=middle;whiteSpace=wrap;rounded=0;" parent="1" vertex="1">
          <mxGeometry x="140" y="-480" width="30" height="20" as="geometry" />
        </mxCell>
        <mxCell id="VqrO-3gcOEbuM5ed-gqK-695" value="1" style="text;html=1;align=center;verticalAlign=middle;whiteSpace=wrap;rounded=0;" parent="1" vertex="1">
          <mxGeometry x="110" y="-480" width="30" height="20" as="geometry" />
        </mxCell>
        <mxCell id="VqrO-3gcOEbuM5ed-gqK-696" value="1" style="text;html=1;align=center;verticalAlign=middle;whiteSpace=wrap;rounded=0;" parent="1" vertex="1">
          <mxGeometry x="80" y="-480" width="30" height="20" as="geometry" />
        </mxCell>
        <mxCell id="VqrO-3gcOEbuM5ed-gqK-697" value="0" style="text;html=1;align=center;verticalAlign=middle;whiteSpace=wrap;rounded=0;" parent="1" vertex="1">
          <mxGeometry x="200" y="-480" width="30" height="20" as="geometry" />
        </mxCell>
        <mxCell id="VqrO-3gcOEbuM5ed-gqK-698" value="0" style="text;html=1;align=center;verticalAlign=middle;whiteSpace=wrap;rounded=0;" parent="1" vertex="1">
          <mxGeometry x="230" y="-480" width="30" height="20" as="geometry" />
        </mxCell>
        <mxCell id="VqrO-3gcOEbuM5ed-gqK-699" value="|" style="text;html=1;align=center;verticalAlign=middle;whiteSpace=wrap;rounded=0;" parent="1" vertex="1">
          <mxGeometry x="170" y="-460" width="30" height="20" as="geometry" />
        </mxCell>
        <mxCell id="VqrO-3gcOEbuM5ed-gqK-700" value="1" style="text;html=1;align=center;verticalAlign=middle;whiteSpace=wrap;rounded=0;" parent="1" vertex="1">
          <mxGeometry x="140" y="-460" width="30" height="20" as="geometry" />
        </mxCell>
        <mxCell id="VqrO-3gcOEbuM5ed-gqK-701" value="1" style="text;html=1;align=center;verticalAlign=middle;whiteSpace=wrap;rounded=0;" parent="1" vertex="1">
          <mxGeometry x="110" y="-460" width="30" height="20" as="geometry" />
        </mxCell>
        <mxCell id="VqrO-3gcOEbuM5ed-gqK-702" value="1" style="text;html=1;align=center;verticalAlign=middle;whiteSpace=wrap;rounded=0;" parent="1" vertex="1">
          <mxGeometry x="80" y="-460" width="30" height="20" as="geometry" />
        </mxCell>
        <mxCell id="VqrO-3gcOEbuM5ed-gqK-703" value="1" style="text;html=1;align=center;verticalAlign=middle;whiteSpace=wrap;rounded=0;" parent="1" vertex="1">
          <mxGeometry x="200" y="-460" width="30" height="20" as="geometry" />
        </mxCell>
        <mxCell id="VqrO-3gcOEbuM5ed-gqK-704" value="1" style="text;html=1;align=center;verticalAlign=middle;whiteSpace=wrap;rounded=0;" parent="1" vertex="1">
          <mxGeometry x="230" y="-460" width="30" height="20" as="geometry" />
        </mxCell>
        <mxCell id="VqrO-3gcOEbuM5ed-gqK-705" value="|" style="text;html=1;align=center;verticalAlign=middle;whiteSpace=wrap;rounded=0;" parent="1" vertex="1">
          <mxGeometry x="170" y="-440" width="30" height="20" as="geometry" />
        </mxCell>
        <mxCell id="VqrO-3gcOEbuM5ed-gqK-706" value="1" style="text;html=1;align=center;verticalAlign=middle;whiteSpace=wrap;rounded=0;" parent="1" vertex="1">
          <mxGeometry x="140" y="-440" width="30" height="20" as="geometry" />
        </mxCell>
        <mxCell id="VqrO-3gcOEbuM5ed-gqK-707" value="0" style="text;html=1;align=center;verticalAlign=middle;whiteSpace=wrap;rounded=0;" parent="1" vertex="1">
          <mxGeometry x="110" y="-440" width="30" height="20" as="geometry" />
        </mxCell>
        <mxCell id="VqrO-3gcOEbuM5ed-gqK-708" value="1" style="text;html=1;align=center;verticalAlign=middle;whiteSpace=wrap;rounded=0;" parent="1" vertex="1">
          <mxGeometry x="80" y="-440" width="30" height="20" as="geometry" />
        </mxCell>
        <mxCell id="VqrO-3gcOEbuM5ed-gqK-709" value="0" style="text;html=1;align=center;verticalAlign=middle;whiteSpace=wrap;rounded=0;" parent="1" vertex="1">
          <mxGeometry x="200" y="-440" width="30" height="20" as="geometry" />
        </mxCell>
        <mxCell id="VqrO-3gcOEbuM5ed-gqK-710" value="0" style="text;html=1;align=center;verticalAlign=middle;whiteSpace=wrap;rounded=0;" parent="1" vertex="1">
          <mxGeometry x="230" y="-440" width="30" height="20" as="geometry" />
        </mxCell>
        <mxCell id="VqrO-3gcOEbuM5ed-gqK-711" value="|" style="text;html=1;align=center;verticalAlign=middle;whiteSpace=wrap;rounded=0;" parent="1" vertex="1">
          <mxGeometry x="170" y="-420" width="30" height="20" as="geometry" />
        </mxCell>
        <mxCell id="VqrO-3gcOEbuM5ed-gqK-712" value="0" style="text;html=1;align=center;verticalAlign=middle;whiteSpace=wrap;rounded=0;" parent="1" vertex="1">
          <mxGeometry x="140" y="-420" width="30" height="20" as="geometry" />
        </mxCell>
        <mxCell id="VqrO-3gcOEbuM5ed-gqK-713" value="0" style="text;html=1;align=center;verticalAlign=middle;whiteSpace=wrap;rounded=0;" parent="1" vertex="1">
          <mxGeometry x="110" y="-420" width="30" height="20" as="geometry" />
        </mxCell>
        <mxCell id="VqrO-3gcOEbuM5ed-gqK-714" value="1" style="text;html=1;align=center;verticalAlign=middle;whiteSpace=wrap;rounded=0;" parent="1" vertex="1">
          <mxGeometry x="80" y="-420" width="30" height="20" as="geometry" />
        </mxCell>
        <mxCell id="VqrO-3gcOEbuM5ed-gqK-715" value="0" style="text;html=1;align=center;verticalAlign=middle;whiteSpace=wrap;rounded=0;" parent="1" vertex="1">
          <mxGeometry x="200" y="-420" width="30" height="20" as="geometry" />
        </mxCell>
        <mxCell id="VqrO-3gcOEbuM5ed-gqK-716" value="0" style="text;html=1;align=center;verticalAlign=middle;whiteSpace=wrap;rounded=0;" parent="1" vertex="1">
          <mxGeometry x="230" y="-420" width="30" height="20" as="geometry" />
        </mxCell>
        <mxCell id="VqrO-3gcOEbuM5ed-gqK-717" value="0" style="text;html=1;align=center;verticalAlign=middle;whiteSpace=wrap;rounded=0;" parent="1" vertex="1">
          <mxGeometry x="260" y="-560" width="30" height="20" as="geometry" />
        </mxCell>
        <mxCell id="VqrO-3gcOEbuM5ed-gqK-718" value="0" style="text;html=1;align=center;verticalAlign=middle;whiteSpace=wrap;rounded=0;" parent="1" vertex="1">
          <mxGeometry x="260" y="-540" width="30" height="20" as="geometry" />
        </mxCell>
        <mxCell id="VqrO-3gcOEbuM5ed-gqK-719" value="0" style="text;html=1;align=center;verticalAlign=middle;whiteSpace=wrap;rounded=0;" parent="1" vertex="1">
          <mxGeometry x="260" y="-520" width="30" height="20" as="geometry" />
        </mxCell>
        <mxCell id="VqrO-3gcOEbuM5ed-gqK-720" value="0" style="text;html=1;align=center;verticalAlign=middle;whiteSpace=wrap;rounded=0;" parent="1" vertex="1">
          <mxGeometry x="260" y="-500" width="30" height="20" as="geometry" />
        </mxCell>
        <mxCell id="VqrO-3gcOEbuM5ed-gqK-721" value="0" style="text;html=1;align=center;verticalAlign=middle;whiteSpace=wrap;rounded=0;" parent="1" vertex="1">
          <mxGeometry x="260" y="-480" width="30" height="20" as="geometry" />
        </mxCell>
        <mxCell id="VqrO-3gcOEbuM5ed-gqK-722" value="1" style="text;html=1;align=center;verticalAlign=middle;whiteSpace=wrap;rounded=0;" parent="1" vertex="1">
          <mxGeometry x="260" y="-460" width="30" height="20" as="geometry" />
        </mxCell>
        <mxCell id="VqrO-3gcOEbuM5ed-gqK-723" value="0" style="text;html=1;align=center;verticalAlign=middle;whiteSpace=wrap;rounded=0;" parent="1" vertex="1">
          <mxGeometry x="260" y="-440" width="30" height="20" as="geometry" />
        </mxCell>
        <mxCell id="VqrO-3gcOEbuM5ed-gqK-724" value="0" style="text;html=1;align=center;verticalAlign=middle;whiteSpace=wrap;rounded=0;" parent="1" vertex="1">
          <mxGeometry x="260" y="-420" width="30" height="20" as="geometry" />
        </mxCell>
        <mxCell id="M0tK6JPJorDqjigLOlj5-114" value="" style="edgeStyle=orthogonalEdgeStyle;rounded=0;orthogonalLoop=1;jettySize=auto;html=1;endArrow=block;endFill=1;strokeWidth=2;strokeColor=#007FFF;" parent="1" source="M0tK6JPJorDqjigLOlj5-115" target="M0tK6JPJorDqjigLOlj5-117" edge="1">
          <mxGeometry relative="1" as="geometry" />
        </mxCell>
        <mxCell id="M0tK6JPJorDqjigLOlj5-115" value="Instruction fetch" style="rounded=0;whiteSpace=wrap;html=1;" parent="1" vertex="1">
          <mxGeometry x="1363" y="-940" width="120" height="40" as="geometry" />
        </mxCell>
        <mxCell id="M0tK6JPJorDqjigLOlj5-116" value="" style="edgeStyle=orthogonalEdgeStyle;rounded=0;orthogonalLoop=1;jettySize=auto;html=1;endArrow=block;endFill=1;strokeWidth=2;strokeColor=#007FFF;" parent="1" source="M0tK6JPJorDqjigLOlj5-117" edge="1">
          <mxGeometry relative="1" as="geometry">
            <mxPoint x="1423" y="-820" as="targetPoint" />
          </mxGeometry>
        </mxCell>
        <mxCell id="M0tK6JPJorDqjigLOlj5-117" value="Decode Buffer" style="rounded=0;whiteSpace=wrap;html=1;" parent="1" vertex="1">
          <mxGeometry x="1363" y="-880" width="120" height="40" as="geometry" />
        </mxCell>
        <mxCell id="M0tK6JPJorDqjigLOlj5-118" style="edgeStyle=orthogonalEdgeStyle;rounded=0;orthogonalLoop=1;jettySize=auto;html=1;exitX=0.5;exitY=1;exitDx=0;exitDy=0;entryX=0.5;entryY=0;entryDx=0;entryDy=0;endArrow=block;endFill=1;strokeWidth=2;strokeColor=#007FFF;" parent="1" source="M0tK6JPJorDqjigLOlj5-119" target="M0tK6JPJorDqjigLOlj5-163" edge="1">
          <mxGeometry relative="1" as="geometry" />
        </mxCell>
        <mxCell id="M0tK6JPJorDqjigLOlj5-185" style="edgeStyle=orthogonalEdgeStyle;rounded=0;orthogonalLoop=1;jettySize=auto;html=1;exitX=1;exitY=0.75;exitDx=0;exitDy=0;entryX=0.5;entryY=0;entryDx=0;entryDy=0;strokeColor=#007FFF;endArrow=block;endFill=1;strokeWidth=2;" parent="1" source="M0tK6JPJorDqjigLOlj5-119" target="M0tK6JPJorDqjigLOlj5-121" edge="1">
          <mxGeometry relative="1" as="geometry" />
        </mxCell>
        <mxCell id="M0tK6JPJorDqjigLOlj5-119" value="Decode + Rename" style="rounded=0;whiteSpace=wrap;html=1;" parent="1" vertex="1">
          <mxGeometry x="1360" y="-760" width="120" height="40" as="geometry" />
        </mxCell>
        <mxCell id="M0tK6JPJorDqjigLOlj5-120" value="" style="edgeStyle=orthogonalEdgeStyle;rounded=0;orthogonalLoop=1;jettySize=auto;html=1;endArrow=block;endFill=1;startArrow=block;startFill=1;strokeWidth=2;strokeColor=#007FFF;" parent="1" source="M0tK6JPJorDqjigLOlj5-121" target="M0tK6JPJorDqjigLOlj5-137" edge="1">
          <mxGeometry relative="1" as="geometry" />
        </mxCell>
        <mxCell id="M0tK6JPJorDqjigLOlj5-121" value="ROB" style="rounded=0;whiteSpace=wrap;html=1;" parent="1" vertex="1">
          <mxGeometry x="1680" y="-640" width="40" height="200" as="geometry" />
        </mxCell>
        <mxCell id="M0tK6JPJorDqjigLOlj5-122" value="PRF" style="rounded=0;whiteSpace=wrap;html=1;" parent="1" vertex="1">
          <mxGeometry x="1240" y="-500" width="360" height="30" as="geometry" />
        </mxCell>
        <mxCell id="M0tK6JPJorDqjigLOlj5-123" style="edgeStyle=orthogonalEdgeStyle;rounded=0;orthogonalLoop=1;jettySize=auto;html=1;exitX=0.25;exitY=0;exitDx=0;exitDy=0;endArrow=block;endFill=1;startArrow=block;startFill=1;strokeWidth=2;endSize=5;startSize=5;entryX=0.125;entryY=1;entryDx=0;entryDy=0;entryPerimeter=0;" parent="1" source="M0tK6JPJorDqjigLOlj5-124" target="M0tK6JPJorDqjigLOlj5-122" edge="1">
          <mxGeometry relative="1" as="geometry">
            <mxPoint x="1285.1538461538462" y="-450" as="targetPoint" />
          </mxGeometry>
        </mxCell>
        <mxCell id="M0tK6JPJorDqjigLOlj5-124" value="ALU" style="rounded=0;whiteSpace=wrap;html=1;" parent="1" vertex="1">
          <mxGeometry x="1270" y="-430" width="60" height="40" as="geometry" />
        </mxCell>
        <mxCell id="M0tK6JPJorDqjigLOlj5-125" style="edgeStyle=orthogonalEdgeStyle;rounded=0;orthogonalLoop=1;jettySize=auto;html=1;exitX=0.25;exitY=0;exitDx=0;exitDy=0;endArrow=block;endFill=1;startArrow=block;startFill=1;strokeWidth=2;endSize=5;startSize=5;entryX=0.348;entryY=1;entryDx=0;entryDy=0;entryPerimeter=0;" parent="1" source="M0tK6JPJorDqjigLOlj5-126" target="M0tK6JPJorDqjigLOlj5-122" edge="1">
          <mxGeometry relative="1" as="geometry">
            <mxPoint x="1365.1538461538462" y="-450" as="targetPoint" />
          </mxGeometry>
        </mxCell>
        <mxCell id="M0tK6JPJorDqjigLOlj5-126" value="AGU" style="rounded=0;whiteSpace=wrap;html=1;" parent="1" vertex="1">
          <mxGeometry x="1350" y="-430" width="60" height="40" as="geometry" />
        </mxCell>
        <mxCell id="M0tK6JPJorDqjigLOlj5-127" style="edgeStyle=orthogonalEdgeStyle;rounded=0;orthogonalLoop=1;jettySize=auto;html=1;exitX=0.25;exitY=0;exitDx=0;exitDy=0;endArrow=block;endFill=1;startArrow=block;startFill=1;strokeWidth=2;endSize=5;startSize=5;entryX=0.57;entryY=1;entryDx=0;entryDy=0;entryPerimeter=0;" parent="1" source="M0tK6JPJorDqjigLOlj5-130" target="M0tK6JPJorDqjigLOlj5-122" edge="1">
          <mxGeometry relative="1" as="geometry">
            <mxPoint x="1445.1538461538462" y="-450" as="targetPoint" />
          </mxGeometry>
        </mxCell>
        <mxCell id="M0tK6JPJorDqjigLOlj5-192" style="edgeStyle=orthogonalEdgeStyle;rounded=0;orthogonalLoop=1;jettySize=auto;html=1;exitX=0.5;exitY=1;exitDx=0;exitDy=0;entryX=0.5;entryY=0;entryDx=0;entryDy=0;endArrow=block;endFill=1;startArrow=block;startFill=1;strokeWidth=2;" parent="1" source="M0tK6JPJorDqjigLOlj5-130" target="M0tK6JPJorDqjigLOlj5-132" edge="1">
          <mxGeometry relative="1" as="geometry" />
        </mxCell>
        <mxCell id="M0tK6JPJorDqjigLOlj5-130" value="LSU" style="rounded=0;whiteSpace=wrap;html=1;" parent="1" vertex="1">
          <mxGeometry x="1430" y="-430" width="60" height="40" as="geometry" />
        </mxCell>
        <mxCell id="M0tK6JPJorDqjigLOlj5-132" value="Load&lt;div&gt;Store&lt;br&gt;Queue&lt;/div&gt;" style="rounded=0;whiteSpace=wrap;html=1;" parent="1" vertex="1">
          <mxGeometry x="1440" y="-360" width="40" height="90" as="geometry" />
        </mxCell>
        <mxCell id="M0tK6JPJorDqjigLOlj5-133" style="edgeStyle=orthogonalEdgeStyle;rounded=0;orthogonalLoop=1;jettySize=auto;html=1;exitX=1;exitY=0.5;exitDx=0;exitDy=0;entryX=0.5;entryY=1;entryDx=0;entryDy=0;endArrow=block;endFill=1;strokeColor=#00FF00;strokeWidth=2;" parent="1" source="M0tK6JPJorDqjigLOlj5-137" target="M0tK6JPJorDqjigLOlj5-141" edge="1">
          <mxGeometry relative="1" as="geometry" />
        </mxCell>
        <mxCell id="M0tK6JPJorDqjigLOlj5-134" style="edgeStyle=orthogonalEdgeStyle;rounded=0;orthogonalLoop=1;jettySize=auto;html=1;exitX=0;exitY=0.5;exitDx=0;exitDy=0;entryX=1;entryY=0.5;entryDx=0;entryDy=0;endArrow=block;endFill=1;startArrow=block;startFill=1;strokeColor=#00FF00;strokeWidth=2;" parent="1" source="M0tK6JPJorDqjigLOlj5-137" target="M0tK6JPJorDqjigLOlj5-132" edge="1">
          <mxGeometry relative="1" as="geometry" />
        </mxCell>
        <mxCell id="M0tK6JPJorDqjigLOlj5-135" style="edgeStyle=orthogonalEdgeStyle;rounded=0;orthogonalLoop=1;jettySize=auto;html=1;exitX=0.25;exitY=1;exitDx=0;exitDy=0;entryX=0.5;entryY=1;entryDx=0;entryDy=0;endArrow=block;endFill=1;strokeWidth=2;strokeColor=#FF0000;" parent="1" source="M0tK6JPJorDqjigLOlj5-137" target="M0tK6JPJorDqjigLOlj5-142" edge="1">
          <mxGeometry relative="1" as="geometry">
            <Array as="points">
              <mxPoint x="1660" y="-240" />
              <mxPoint x="1180" y="-240" />
            </Array>
          </mxGeometry>
        </mxCell>
        <mxCell id="M0tK6JPJorDqjigLOlj5-136" style="edgeStyle=orthogonalEdgeStyle;rounded=0;orthogonalLoop=1;jettySize=auto;html=1;exitX=0.75;exitY=1;exitDx=0;exitDy=0;endArrow=block;endFill=1;strokeWidth=2;strokeColor=#FF0000;entryX=0;entryY=0.5;entryDx=0;entryDy=0;" parent="1" source="M0tK6JPJorDqjigLOlj5-137" target="M0tK6JPJorDqjigLOlj5-115" edge="1">
          <mxGeometry relative="1" as="geometry">
            <Array as="points">
              <mxPoint x="1740" y="-220" />
              <mxPoint x="1130" y="-220" />
              <mxPoint x="1130" y="-920" />
            </Array>
            <mxPoint x="1280" y="-800" as="targetPoint" />
          </mxGeometry>
        </mxCell>
        <mxCell id="M0tK6JPJorDqjigLOlj5-137" value="Commit" style="rounded=0;whiteSpace=wrap;html=1;" parent="1" vertex="1">
          <mxGeometry x="1620" y="-360" width="160" height="40" as="geometry" />
        </mxCell>
        <mxCell id="M0tK6JPJorDqjigLOlj5-187" style="edgeStyle=orthogonalEdgeStyle;rounded=0;orthogonalLoop=1;jettySize=auto;html=1;exitX=0;exitY=0.5;exitDx=0;exitDy=0;entryX=1;entryY=0.25;entryDx=0;entryDy=0;endArrow=block;endFill=1;strokeWidth=2;strokeColor=#808080;startArrow=block;startFill=1;" parent="1" source="M0tK6JPJorDqjigLOlj5-139" target="M0tK6JPJorDqjigLOlj5-119" edge="1">
          <mxGeometry relative="1" as="geometry" />
        </mxCell>
        <mxCell id="M0tK6JPJorDqjigLOlj5-139" value="Speculative Register Alias Table" style="rounded=0;whiteSpace=wrap;html=1;" parent="1" vertex="1">
          <mxGeometry x="1720" y="-770" width="120" height="40" as="geometry" />
        </mxCell>
        <mxCell id="M0tK6JPJorDqjigLOlj5-140" style="edgeStyle=orthogonalEdgeStyle;rounded=0;orthogonalLoop=1;jettySize=auto;html=1;exitX=0.5;exitY=0;exitDx=0;exitDy=0;entryX=0.5;entryY=1;entryDx=0;entryDy=0;endArrow=block;endFill=1;strokeWidth=2;strokeColor=#FF0000;" parent="1" source="M0tK6JPJorDqjigLOlj5-141" target="M0tK6JPJorDqjigLOlj5-139" edge="1">
          <mxGeometry relative="1" as="geometry">
            <mxPoint x="1700" y="-690" as="targetPoint" />
          </mxGeometry>
        </mxCell>
        <mxCell id="M0tK6JPJorDqjigLOlj5-141" value="Commited Register Alias Table" style="rounded=0;whiteSpace=wrap;html=1;" parent="1" vertex="1">
          <mxGeometry x="1760" y="-440" width="120" height="40" as="geometry" />
        </mxCell>
        <mxCell id="M0tK6JPJorDqjigLOlj5-142" value="Score Board" style="rounded=0;whiteSpace=wrap;html=1;" parent="1" vertex="1">
          <mxGeometry x="1160" y="-760" width="40" height="320" as="geometry" />
        </mxCell>
        <mxCell id="M0tK6JPJorDqjigLOlj5-143" style="edgeStyle=orthogonalEdgeStyle;rounded=0;orthogonalLoop=1;jettySize=auto;html=1;exitX=0.25;exitY=0;exitDx=0;exitDy=0;endArrow=block;endFill=1;startArrow=block;startFill=1;strokeWidth=2;endSize=5;startSize=5;entryX=0.792;entryY=1;entryDx=0;entryDy=0;entryPerimeter=0;" parent="1" source="M0tK6JPJorDqjigLOlj5-145" target="M0tK6JPJorDqjigLOlj5-122" edge="1">
          <mxGeometry relative="1" as="geometry">
            <mxPoint x="1525" y="-440" as="targetPoint" />
          </mxGeometry>
        </mxCell>
        <mxCell id="M0tK6JPJorDqjigLOlj5-186" style="edgeStyle=orthogonalEdgeStyle;rounded=0;orthogonalLoop=1;jettySize=auto;html=1;exitX=1;exitY=0.5;exitDx=0;exitDy=0;entryX=0.25;entryY=0;entryDx=0;entryDy=0;strokeColor=#00FF00;endArrow=block;endFill=1;strokeWidth=2;" parent="1" source="M0tK6JPJorDqjigLOlj5-145" target="M0tK6JPJorDqjigLOlj5-137" edge="1">
          <mxGeometry relative="1" as="geometry" />
        </mxCell>
        <mxCell id="M0tK6JPJorDqjigLOlj5-145" value="Branch" style="rounded=0;whiteSpace=wrap;html=1;" parent="1" vertex="1">
          <mxGeometry x="1510" y="-430" width="60" height="40" as="geometry" />
        </mxCell>
        <mxCell id="M0tK6JPJorDqjigLOlj5-147" style="edgeStyle=orthogonalEdgeStyle;rounded=0;orthogonalLoop=1;jettySize=auto;html=1;exitX=0.75;exitY=1;exitDx=0;exitDy=0;entryX=0.75;entryY=0;entryDx=0;entryDy=0;endArrow=block;endFill=1;strokeColor=#007FFF;strokeWidth=2;" parent="1" source="M0tK6JPJorDqjigLOlj5-149" target="M0tK6JPJorDqjigLOlj5-124" edge="1">
          <mxGeometry relative="1" as="geometry" />
        </mxCell>
        <mxCell id="M0tK6JPJorDqjigLOlj5-149" value="ALU Scheduler" style="rounded=0;whiteSpace=wrap;html=1;" parent="1" vertex="1">
          <mxGeometry x="1270" y="-620" width="60" height="80" as="geometry" />
        </mxCell>
        <mxCell id="M0tK6JPJorDqjigLOlj5-150" style="edgeStyle=orthogonalEdgeStyle;rounded=0;orthogonalLoop=1;jettySize=auto;html=1;exitX=0.75;exitY=1;exitDx=0;exitDy=0;entryX=0.75;entryY=0;entryDx=0;entryDy=0;endArrow=block;endFill=1;strokeColor=#007FFF;strokeWidth=2;" parent="1" source="M0tK6JPJorDqjigLOlj5-153" target="M0tK6JPJorDqjigLOlj5-126" edge="1">
          <mxGeometry relative="1" as="geometry" />
        </mxCell>
        <mxCell id="M0tK6JPJorDqjigLOlj5-151" style="edgeStyle=orthogonalEdgeStyle;rounded=0;orthogonalLoop=1;jettySize=auto;html=1;exitX=0.25;exitY=1;exitDx=0;exitDy=0;endArrow=none;endFill=0;startArrow=block;startFill=1;endSize=4;startSize=4;strokeColor=#808080;strokeWidth=2;jumpStyle=arc;" parent="1" source="M0tK6JPJorDqjigLOlj5-153" edge="1">
          <mxGeometry relative="1" as="geometry">
            <mxPoint x="1280" y="-520" as="targetPoint" />
            <Array as="points">
              <mxPoint x="1365" y="-520" />
            </Array>
          </mxGeometry>
        </mxCell>
        <mxCell id="M0tK6JPJorDqjigLOlj5-153" value="AGU Scheduler" style="rounded=0;whiteSpace=wrap;html=1;" parent="1" vertex="1">
          <mxGeometry x="1350" y="-620" width="60" height="80" as="geometry" />
        </mxCell>
        <mxCell id="M0tK6JPJorDqjigLOlj5-154" style="edgeStyle=orthogonalEdgeStyle;rounded=0;orthogonalLoop=1;jettySize=auto;html=1;exitX=0.75;exitY=1;exitDx=0;exitDy=0;entryX=0.75;entryY=0;entryDx=0;entryDy=0;endArrow=block;endFill=1;strokeColor=#007FFF;strokeWidth=2;" parent="1" source="M0tK6JPJorDqjigLOlj5-157" target="M0tK6JPJorDqjigLOlj5-130" edge="1">
          <mxGeometry relative="1" as="geometry" />
        </mxCell>
        <mxCell id="M0tK6JPJorDqjigLOlj5-157" value="LSU Scheduler" style="rounded=0;whiteSpace=wrap;html=1;" parent="1" vertex="1">
          <mxGeometry x="1430" y="-620" width="60" height="80" as="geometry" />
        </mxCell>
        <mxCell id="M0tK6JPJorDqjigLOlj5-159" style="edgeStyle=orthogonalEdgeStyle;rounded=0;orthogonalLoop=1;jettySize=auto;html=1;exitX=0.5;exitY=1;exitDx=0;exitDy=0;entryX=0.5;entryY=0;entryDx=0;entryDy=0;endArrow=block;endFill=1;strokeColor=#007FFF;strokeWidth=2;" parent="1" source="M0tK6JPJorDqjigLOlj5-163" target="M0tK6JPJorDqjigLOlj5-153" edge="1">
          <mxGeometry relative="1" as="geometry" />
        </mxCell>
        <mxCell id="M0tK6JPJorDqjigLOlj5-160" style="edgeStyle=orthogonalEdgeStyle;rounded=0;orthogonalLoop=1;jettySize=auto;html=1;entryX=0.5;entryY=0;entryDx=0;entryDy=0;exitX=0.5;exitY=1;exitDx=0;exitDy=0;endArrow=block;endFill=1;strokeColor=#007FFF;strokeWidth=2;" parent="1" source="M0tK6JPJorDqjigLOlj5-163" target="M0tK6JPJorDqjigLOlj5-149" edge="1">
          <mxGeometry relative="1" as="geometry">
            <mxPoint x="1420" y="-627" as="sourcePoint" />
          </mxGeometry>
        </mxCell>
        <mxCell id="M0tK6JPJorDqjigLOlj5-161" style="edgeStyle=orthogonalEdgeStyle;rounded=0;orthogonalLoop=1;jettySize=auto;html=1;exitX=0.5;exitY=1;exitDx=0;exitDy=0;entryX=0.5;entryY=0;entryDx=0;entryDy=0;endArrow=block;endFill=1;strokeColor=#007FFF;strokeWidth=2;" parent="1" source="M0tK6JPJorDqjigLOlj5-163" target="M0tK6JPJorDqjigLOlj5-157" edge="1">
          <mxGeometry relative="1" as="geometry" />
        </mxCell>
        <mxCell id="M0tK6JPJorDqjigLOlj5-162" style="edgeStyle=orthogonalEdgeStyle;rounded=0;orthogonalLoop=1;jettySize=auto;html=1;exitX=0.5;exitY=1;exitDx=0;exitDy=0;entryX=0.5;entryY=0;entryDx=0;entryDy=0;endArrow=block;endFill=1;strokeColor=#007FFF;strokeWidth=2;" parent="1" source="M0tK6JPJorDqjigLOlj5-163" target="M0tK6JPJorDqjigLOlj5-168" edge="1">
          <mxGeometry relative="1" as="geometry">
            <Array as="points">
              <mxPoint x="1420" y="-640" />
              <mxPoint x="1540" y="-640" />
            </Array>
          </mxGeometry>
        </mxCell>
        <mxCell id="M0tK6JPJorDqjigLOlj5-163" value="Despatch" style="rounded=0;whiteSpace=wrap;html=1;" parent="1" vertex="1">
          <mxGeometry x="1360" y="-700" width="120" height="40" as="geometry" />
        </mxCell>
        <mxCell id="M0tK6JPJorDqjigLOlj5-166" style="edgeStyle=orthogonalEdgeStyle;rounded=0;orthogonalLoop=1;jettySize=auto;html=1;exitX=0.75;exitY=1;exitDx=0;exitDy=0;entryX=0.75;entryY=0;entryDx=0;entryDy=0;endArrow=block;endFill=1;strokeColor=#007FFF;strokeWidth=2;" parent="1" source="M0tK6JPJorDqjigLOlj5-168" target="M0tK6JPJorDqjigLOlj5-145" edge="1">
          <mxGeometry relative="1" as="geometry" />
        </mxCell>
        <mxCell id="M0tK6JPJorDqjigLOlj5-168" value="Branch Scheduler" style="rounded=0;whiteSpace=wrap;html=1;" parent="1" vertex="1">
          <mxGeometry x="1510" y="-620" width="60" height="80" as="geometry" />
        </mxCell>
        <mxCell id="M0tK6JPJorDqjigLOlj5-169" style="edgeStyle=orthogonalEdgeStyle;rounded=0;orthogonalLoop=1;jettySize=auto;html=1;exitX=0;exitY=0.5;exitDx=0;exitDy=0;endArrow=block;endFill=1;strokeColor=#808080;strokeWidth=2;entryX=1;entryY=0.859;entryDx=0;entryDy=0;entryPerimeter=0;" parent="1" source="M0tK6JPJorDqjigLOlj5-122" target="M0tK6JPJorDqjigLOlj5-142" edge="1">
          <mxGeometry relative="1" as="geometry">
            <mxPoint x="1210" y="-490" as="targetPoint" />
          </mxGeometry>
        </mxCell>
        <mxCell id="M0tK6JPJorDqjigLOlj5-170" style="edgeStyle=orthogonalEdgeStyle;rounded=0;orthogonalLoop=1;jettySize=auto;html=1;exitX=0;exitY=0.75;exitDx=0;exitDy=0;entryX=0.027;entryY=0;entryDx=0;entryDy=0;entryPerimeter=0;endArrow=block;endFill=1;strokeWidth=2;" parent="1" source="M0tK6JPJorDqjigLOlj5-119" target="M0tK6JPJorDqjigLOlj5-122" edge="1">
          <mxGeometry relative="1" as="geometry">
            <Array as="points">
              <mxPoint x="1250" y="-730" />
            </Array>
          </mxGeometry>
        </mxCell>
        <mxCell id="M0tK6JPJorDqjigLOlj5-171" style="edgeStyle=orthogonalEdgeStyle;rounded=0;orthogonalLoop=1;jettySize=auto;html=1;exitX=0;exitY=0.25;exitDx=0;exitDy=0;entryX=0.998;entryY=0.03;entryDx=0;entryDy=0;entryPerimeter=0;startArrow=block;startFill=1;endArrow=block;endFill=1;strokeWidth=2;strokeColor=#808080;" parent="1" source="M0tK6JPJorDqjigLOlj5-119" target="M0tK6JPJorDqjigLOlj5-142" edge="1">
          <mxGeometry relative="1" as="geometry" />
        </mxCell>
        <mxCell id="M0tK6JPJorDqjigLOlj5-172" style="edgeStyle=orthogonalEdgeStyle;rounded=0;orthogonalLoop=1;jettySize=auto;html=1;exitX=0.25;exitY=1;exitDx=0;exitDy=0;entryX=1;entryY=0.75;entryDx=0;entryDy=0;startArrow=block;startFill=1;endArrow=none;endFill=0;strokeColor=#808080;strokeWidth=2;" parent="1" source="M0tK6JPJorDqjigLOlj5-149" target="M0tK6JPJorDqjigLOlj5-142" edge="1">
          <mxGeometry relative="1" as="geometry" />
        </mxCell>
        <mxCell id="M0tK6JPJorDqjigLOlj5-176" value="" style="endArrow=block;startArrow=none;html=1;rounded=0;entryX=0;entryY=0.5;entryDx=0;entryDy=0;exitX=0.5;exitY=0;exitDx=0;exitDy=0;jumpStyle=arc;strokeColor=#808080;endFill=1;startFill=0;strokeWidth=2;" parent="1" source="M0tK6JPJorDqjigLOlj5-145" target="M0tK6JPJorDqjigLOlj5-121" edge="1">
          <mxGeometry width="50" height="50" relative="1" as="geometry">
            <mxPoint x="1600" y="-450" as="sourcePoint" />
            <mxPoint x="1650" y="-500" as="targetPoint" />
            <Array as="points">
              <mxPoint x="1540" y="-450" />
              <mxPoint x="1640" y="-450" />
              <mxPoint x="1640" y="-540" />
            </Array>
          </mxGeometry>
        </mxCell>
        <mxCell id="M0tK6JPJorDqjigLOlj5-177" value="" style="endArrow=none;html=1;rounded=0;entryX=0.5;entryY=0;entryDx=0;entryDy=0;jumpStyle=arc;strokeColor=#808080;endFill=0;startArrow=none;startFill=0;strokeWidth=2;" parent="1" target="M0tK6JPJorDqjigLOlj5-130" edge="1">
          <mxGeometry width="50" height="50" relative="1" as="geometry">
            <mxPoint x="1540" y="-450" as="sourcePoint" />
            <mxPoint x="1590" y="-500" as="targetPoint" />
            <Array as="points">
              <mxPoint x="1460" y="-450" />
            </Array>
          </mxGeometry>
        </mxCell>
        <mxCell id="M0tK6JPJorDqjigLOlj5-178" value="" style="endArrow=none;html=1;rounded=0;entryX=0.5;entryY=0;entryDx=0;entryDy=0;jumpStyle=arc;strokeColor=#808080;endFill=0;startArrow=none;startFill=0;strokeWidth=2;" parent="1" target="M0tK6JPJorDqjigLOlj5-126" edge="1">
          <mxGeometry width="50" height="50" relative="1" as="geometry">
            <mxPoint x="1460" y="-450" as="sourcePoint" />
            <mxPoint x="1510" y="-500" as="targetPoint" />
            <Array as="points">
              <mxPoint x="1380" y="-450" />
            </Array>
          </mxGeometry>
        </mxCell>
        <mxCell id="M0tK6JPJorDqjigLOlj5-179" value="" style="endArrow=none;html=1;rounded=0;entryX=0.5;entryY=0;entryDx=0;entryDy=0;jumpStyle=arc;strokeColor=#808080;endFill=0;startArrow=none;startFill=0;strokeWidth=2;" parent="1" target="M0tK6JPJorDqjigLOlj5-124" edge="1">
          <mxGeometry width="50" height="50" relative="1" as="geometry">
            <mxPoint x="1380" y="-450" as="sourcePoint" />
            <mxPoint x="1430" y="-500" as="targetPoint" />
            <Array as="points">
              <mxPoint x="1300" y="-450" />
            </Array>
          </mxGeometry>
        </mxCell>
        <mxCell id="M0tK6JPJorDqjigLOlj5-182" style="edgeStyle=orthogonalEdgeStyle;rounded=0;orthogonalLoop=1;jettySize=auto;html=1;exitX=0.25;exitY=1;exitDx=0;exitDy=0;endArrow=none;endFill=0;startArrow=block;startFill=1;endSize=4;startSize=4;strokeColor=#808080;strokeWidth=2;jumpStyle=arc;" parent="1" edge="1">
          <mxGeometry relative="1" as="geometry">
            <mxPoint x="1448" y="-540" as="sourcePoint" />
            <mxPoint x="1363" y="-520" as="targetPoint" />
            <Array as="points">
              <mxPoint x="1448" y="-520" />
            </Array>
          </mxGeometry>
        </mxCell>
        <mxCell id="M0tK6JPJorDqjigLOlj5-183" style="edgeStyle=orthogonalEdgeStyle;rounded=0;orthogonalLoop=1;jettySize=auto;html=1;exitX=0.25;exitY=1;exitDx=0;exitDy=0;endArrow=none;endFill=0;startArrow=block;startFill=1;endSize=4;startSize=4;strokeColor=#808080;strokeWidth=2;jumpStyle=arc;" parent="1" edge="1">
          <mxGeometry relative="1" as="geometry">
            <mxPoint x="1528" y="-540" as="sourcePoint" />
            <mxPoint x="1443" y="-520" as="targetPoint" />
            <Array as="points">
              <mxPoint x="1528" y="-520" />
            </Array>
          </mxGeometry>
        </mxCell>
        <mxCell id="M0tK6JPJorDqjigLOlj5-191" style="edgeStyle=orthogonalEdgeStyle;rounded=0;orthogonalLoop=1;jettySize=auto;html=1;exitX=0.5;exitY=1;exitDx=0;exitDy=0;entryX=0.5;entryY=0;entryDx=0;entryDy=0;strokeColor=#007FFF;endArrow=block;endFill=1;strokeWidth=2;" parent="1" source="M0tK6JPJorDqjigLOlj5-188" target="M0tK6JPJorDqjigLOlj5-119" edge="1">
          <mxGeometry relative="1" as="geometry" />
        </mxCell>
        <mxCell id="M0tK6JPJorDqjigLOlj5-188" value="Pre-Decode" style="rounded=0;whiteSpace=wrap;html=1;" parent="1" vertex="1">
          <mxGeometry x="1360" y="-820" width="120" height="40" as="geometry" />
        </mxCell>
        <mxCell id="M0tK6JPJorDqjigLOlj5-193" value="" style="endArrow=block;html=1;rounded=0;strokeWidth=2;endFill=1;" parent="1" edge="1">
          <mxGeometry width="50" height="50" relative="1" as="geometry">
            <mxPoint x="1720" y="-960.5699999999999" as="sourcePoint" />
            <mxPoint x="1560" y="-960.5699999999999" as="targetPoint" />
          </mxGeometry>
        </mxCell>
        <mxCell id="xCOhQsVcoW2qvsszv3Tx-2" value="&lt;h1 style=&quot;margin-top: 0px;&quot;&gt;Score Board&lt;/h1&gt;&lt;div&gt;- Tracks if PR is allocated or free&lt;/div&gt;&lt;div&gt;- Tracks if PR has valid data yet&lt;/div&gt;&lt;div&gt;- Used to request allocation and freeing&lt;/div&gt;" style="text;html=1;whiteSpace=wrap;overflow=hidden;rounded=0;" parent="1" vertex="1">
          <mxGeometry x="480" y="-120" width="280" height="120" as="geometry" />
        </mxCell>
        <mxCell id="M0tK6JPJorDqjigLOlj5-194" value="Data flow" style="text;html=1;align=center;verticalAlign=middle;whiteSpace=wrap;rounded=0;fontSize=14;" parent="1" vertex="1">
          <mxGeometry x="1560" y="-990.15" width="160" height="30" as="geometry" />
        </mxCell>
        <mxCell id="xCOhQsVcoW2qvsszv3Tx-3" value="&lt;h1 style=&quot;margin-top: 0px;&quot;&gt;RAT (speculative)&lt;/h1&gt;&lt;div&gt;- Tracks speculative ISA -&amp;gt; PRF mappings&lt;/div&gt;" style="text;html=1;whiteSpace=wrap;overflow=hidden;rounded=0;" parent="1" vertex="1">
          <mxGeometry x="480" y="-360" width="280" height="120" as="geometry" />
        </mxCell>
        <mxCell id="M0tK6JPJorDqjigLOlj5-195" value="" style="endArrow=block;html=1;rounded=0;strokeWidth=2;endFill=1;fontColor=#007FFF;strokeColor=#007FFF;" parent="1" edge="1">
          <mxGeometry width="50" height="50" relative="1" as="geometry">
            <mxPoint x="1720" y="-920.5699999999999" as="sourcePoint" />
            <mxPoint x="1560" y="-920.5699999999999" as="targetPoint" />
          </mxGeometry>
        </mxCell>
        <mxCell id="xCOhQsVcoW2qvsszv3Tx-4" value="&lt;h1 style=&quot;margin-top: 0px;&quot;&gt;RAT (commited)&lt;/h1&gt;&lt;div&gt;- Tracks commited ISA -&amp;gt; PRF mappings&lt;/div&gt;" style="text;html=1;whiteSpace=wrap;overflow=hidden;rounded=0;" parent="1" vertex="1">
          <mxGeometry x="480" y="-240" width="280" height="120" as="geometry" />
        </mxCell>
        <mxCell id="M0tK6JPJorDqjigLOlj5-196" value="Instruction Flow" style="text;html=1;align=center;verticalAlign=middle;whiteSpace=wrap;rounded=0;fontSize=14;" parent="1" vertex="1">
          <mxGeometry x="1560" y="-950.15" width="160" height="30" as="geometry" />
        </mxCell>
        <mxCell id="xCOhQsVcoW2qvsszv3Tx-5" value="&lt;h1 style=&quot;margin-top: 0px;&quot;&gt;&lt;span style=&quot;background-color: transparent; color: light-dark(rgb(0, 0, 0), rgb(255, 255, 255));&quot;&gt;ROB&lt;/span&gt;&lt;/h1&gt;&lt;div&gt;- Stores uops in program order&lt;/div&gt;&lt;div&gt;- informs retirement which PRs can be freed&lt;/div&gt;&lt;div&gt;- Stores PC for each uop&lt;/div&gt;&lt;div&gt;- Does ROB things&lt;/div&gt;" style="text;html=1;whiteSpace=wrap;overflow=hidden;rounded=0;" parent="1" vertex="1">
          <mxGeometry x="480" width="280" height="120" as="geometry" />
        </mxCell>
        <mxCell id="M0tK6JPJorDqjigLOlj5-197" value="" style="endArrow=block;html=1;rounded=0;strokeWidth=2;endFill=1;fontColor=#808080;strokeColor=#808080;" parent="1" edge="1">
          <mxGeometry width="50" height="50" relative="1" as="geometry">
            <mxPoint x="1720" y="-880.5699999999999" as="sourcePoint" />
            <mxPoint x="1560" y="-880.5699999999999" as="targetPoint" />
          </mxGeometry>
        </mxCell>
        <mxCell id="xCOhQsVcoW2qvsszv3Tx-6" value="&lt;h1 style=&quot;margin-top: 0px;&quot;&gt;Branch&lt;/h1&gt;&lt;div&gt;- Branches are checked in order of whats ready to run (JIZ has explicit dependence on ALU_STAT, JMP doesnt so can be checked in any order).&lt;/div&gt;&lt;div&gt;&lt;br&gt;&lt;/div&gt;&lt;div&gt;- If a branch is to be taken its signalled to commit and branch stalls till this is resolved by commit.&lt;/div&gt;" style="text;html=1;whiteSpace=wrap;overflow=hidden;rounded=0;" parent="1" vertex="1">
          <mxGeometry x="480" y="-520" width="280" height="160" as="geometry" />
        </mxCell>
        <mxCell id="M0tK6JPJorDqjigLOlj5-198" value="Control Signal" style="text;html=1;align=center;verticalAlign=middle;whiteSpace=wrap;rounded=0;fontSize=14;" parent="1" vertex="1">
          <mxGeometry x="1560" y="-910.15" width="160" height="30" as="geometry" />
        </mxCell>
        <mxCell id="M0tK6JPJorDqjigLOlj5-202" value="" style="endArrow=block;html=1;rounded=0;strokeWidth=2;endFill=1;fontColor=#808080;strokeColor=#FF0000;" parent="1" edge="1">
          <mxGeometry width="50" height="50" relative="1" as="geometry">
            <mxPoint x="1720" y="-840.5699999999999" as="sourcePoint" />
            <mxPoint x="1560" y="-840.5699999999999" as="targetPoint" />
          </mxGeometry>
        </mxCell>
        <mxCell id="M0tK6JPJorDqjigLOlj5-203" value="ISA State Recovery" style="text;html=1;align=center;verticalAlign=middle;whiteSpace=wrap;rounded=0;fontSize=14;" parent="1" vertex="1">
          <mxGeometry x="1560" y="-870.15" width="160" height="30" as="geometry" />
        </mxCell>
        <mxCell id="M0tK6JPJorDqjigLOlj5-204" value="" style="endArrow=block;html=1;rounded=0;strokeWidth=2;endFill=1;fontColor=#808080;strokeColor=#00FF00;" parent="1" edge="1">
          <mxGeometry width="50" height="50" relative="1" as="geometry">
            <mxPoint x="1720" y="-800.42" as="sourcePoint" />
            <mxPoint x="1560" y="-800.42" as="targetPoint" />
          </mxGeometry>
        </mxCell>
        <mxCell id="M0tK6JPJorDqjigLOlj5-205" value="Commit ISA state&amp;nbsp;" style="text;html=1;align=center;verticalAlign=middle;whiteSpace=wrap;rounded=0;fontSize=14;" parent="1" vertex="1">
          <mxGeometry x="1560" y="-830" width="160" height="30" as="geometry" />
        </mxCell>
        <mxCell id="M0tK6JPJorDqjigLOlj5-206" style="edgeStyle=orthogonalEdgeStyle;rounded=0;orthogonalLoop=1;jettySize=auto;html=1;exitX=1;exitY=0.5;exitDx=0;exitDy=0;entryX=0.5;entryY=1;entryDx=0;entryDy=0;endArrow=blockThin;endFill=1;" parent="1" source="M0tK6JPJorDqjigLOlj5-208" target="M0tK6JPJorDqjigLOlj5-215" edge="1">
          <mxGeometry relative="1" as="geometry">
            <Array as="points">
              <mxPoint x="2490" y="-480.25" />
              <mxPoint x="2490" y="-496.25" />
            </Array>
          </mxGeometry>
        </mxCell>
        <mxCell id="M0tK6JPJorDqjigLOlj5-207" style="edgeStyle=orthogonalEdgeStyle;rounded=0;orthogonalLoop=1;jettySize=auto;html=1;exitX=0.5;exitY=0;exitDx=0;exitDy=0;entryX=0.5;entryY=1;entryDx=0;entryDy=0;endArrow=blockThin;endFill=1;" parent="1" source="M0tK6JPJorDqjigLOlj5-208" target="M0tK6JPJorDqjigLOlj5-221" edge="1">
          <mxGeometry relative="1" as="geometry" />
        </mxCell>
        <mxCell id="M0tK6JPJorDqjigLOlj5-208" value="Request Dispatch" style="rounded=0;whiteSpace=wrap;html=1;" parent="1" vertex="1">
          <mxGeometry x="2400" y="-500" width="80" height="40" as="geometry" />
        </mxCell>
        <mxCell id="M0tK6JPJorDqjigLOlj5-209" style="edgeStyle=orthogonalEdgeStyle;rounded=0;orthogonalLoop=1;jettySize=auto;html=1;exitX=0.5;exitY=1;exitDx=0;exitDy=0;entryX=0.75;entryY=0;entryDx=0;entryDy=0;endArrow=blockThin;endFill=1;" parent="1" source="M0tK6JPJorDqjigLOlj5-211" target="M0tK6JPJorDqjigLOlj5-213" edge="1">
          <mxGeometry relative="1" as="geometry" />
        </mxCell>
        <mxCell id="M0tK6JPJorDqjigLOlj5-210" style="edgeStyle=orthogonalEdgeStyle;rounded=0;orthogonalLoop=1;jettySize=auto;html=1;exitX=0.5;exitY=0;exitDx=0;exitDy=0;endArrow=blockThin;endFill=1;" parent="1" source="M0tK6JPJorDqjigLOlj5-211" edge="1">
          <mxGeometry relative="1" as="geometry">
            <mxPoint x="2440" y="-566.25" as="targetPoint" />
            <Array as="points">
              <mxPoint x="2600" y="-566.25" />
              <mxPoint x="2440" y="-566.25" />
            </Array>
          </mxGeometry>
        </mxCell>
        <mxCell id="M0tK6JPJorDqjigLOlj5-211" value="Request retirement" style="rounded=0;whiteSpace=wrap;html=1;" parent="1" vertex="1">
          <mxGeometry x="2560" y="-500" width="80" height="40" as="geometry" />
        </mxCell>
        <mxCell id="M0tK6JPJorDqjigLOlj5-212" style="edgeStyle=orthogonalEdgeStyle;rounded=0;orthogonalLoop=1;jettySize=auto;html=1;exitX=0.25;exitY=0;exitDx=0;exitDy=0;entryX=0.5;entryY=1;entryDx=0;entryDy=0;endArrow=blockThin;endFill=1;" parent="1" source="M0tK6JPJorDqjigLOlj5-213" target="M0tK6JPJorDqjigLOlj5-208" edge="1">
          <mxGeometry relative="1" as="geometry" />
        </mxCell>
        <mxCell id="M0tK6JPJorDqjigLOlj5-213" value="X-Bar" style="rounded=0;whiteSpace=wrap;html=1;" parent="1" vertex="1">
          <mxGeometry x="2360" y="-420" width="320" height="20" as="geometry" />
        </mxCell>
        <mxCell id="M0tK6JPJorDqjigLOlj5-214" style="edgeStyle=orthogonalEdgeStyle;rounded=0;orthogonalLoop=1;jettySize=auto;html=1;exitX=0.5;exitY=0;exitDx=0;exitDy=0;entryX=0;entryY=0.5;entryDx=0;entryDy=0;endArrow=blockThin;endFill=1;" parent="1" source="M0tK6JPJorDqjigLOlj5-215" target="M0tK6JPJorDqjigLOlj5-211" edge="1">
          <mxGeometry relative="1" as="geometry">
            <Array as="points">
              <mxPoint x="2540" y="-496.25" />
              <mxPoint x="2540" y="-480.25" />
            </Array>
          </mxGeometry>
        </mxCell>
        <mxCell id="M0tK6JPJorDqjigLOlj5-215" value="Request buffer" style="rounded=0;whiteSpace=wrap;html=1;rotation=90;" parent="1" vertex="1">
          <mxGeometry x="2460" y="-506.25" width="120" height="20" as="geometry" />
        </mxCell>
        <mxCell id="M0tK6JPJorDqjigLOlj5-216" style="edgeStyle=orthogonalEdgeStyle;rounded=0;orthogonalLoop=1;jettySize=auto;html=1;exitX=0.5;exitY=0;exitDx=0;exitDy=0;entryX=0.5;entryY=1;entryDx=0;entryDy=0;endArrow=blockThin;endFill=1;" parent="1" source="M0tK6JPJorDqjigLOlj5-218" target="M0tK6JPJorDqjigLOlj5-223" edge="1">
          <mxGeometry relative="1" as="geometry" />
        </mxCell>
        <mxCell id="M0tK6JPJorDqjigLOlj5-217" style="edgeStyle=orthogonalEdgeStyle;rounded=0;orthogonalLoop=1;jettySize=auto;html=1;exitX=1;exitY=0.5;exitDx=0;exitDy=0;entryX=1;entryY=0.5;entryDx=0;entryDy=0;endArrow=blockThin;endFill=1;" parent="1" source="M0tK6JPJorDqjigLOlj5-218" target="M0tK6JPJorDqjigLOlj5-211" edge="1">
          <mxGeometry relative="1" as="geometry">
            <Array as="points">
              <mxPoint x="2679" y="-720.25" />
              <mxPoint x="2679" y="-480.25" />
            </Array>
          </mxGeometry>
        </mxCell>
        <mxCell id="M0tK6JPJorDqjigLOlj5-218" value="L2 16 way 128KiB" style="rounded=0;whiteSpace=wrap;html=1;" parent="1" vertex="1">
          <mxGeometry x="2380" y="-740" width="120" height="40" as="geometry" />
        </mxCell>
        <mxCell id="M0tK6JPJorDqjigLOlj5-219" style="edgeStyle=orthogonalEdgeStyle;rounded=0;orthogonalLoop=1;jettySize=auto;html=1;exitX=0.5;exitY=0;exitDx=0;exitDy=0;endArrow=blockThin;endFill=1;" parent="1" source="M0tK6JPJorDqjigLOlj5-221" target="M0tK6JPJorDqjigLOlj5-218" edge="1">
          <mxGeometry relative="1" as="geometry" />
        </mxCell>
        <mxCell id="M0tK6JPJorDqjigLOlj5-220" style="edgeStyle=orthogonalEdgeStyle;rounded=0;orthogonalLoop=1;jettySize=auto;html=1;exitX=1;exitY=0.5;exitDx=0;exitDy=0;entryX=1;entryY=0.25;entryDx=0;entryDy=0;endArrow=blockThin;endFill=1;" parent="1" source="M0tK6JPJorDqjigLOlj5-221" target="M0tK6JPJorDqjigLOlj5-211" edge="1">
          <mxGeometry relative="1" as="geometry">
            <Array as="points">
              <mxPoint x="2669" y="-640.25" />
              <mxPoint x="2669" y="-490.25" />
            </Array>
          </mxGeometry>
        </mxCell>
        <mxCell id="M0tK6JPJorDqjigLOlj5-221" value="L1, 2 way 16 KiB" style="rounded=0;whiteSpace=wrap;html=1;" parent="1" vertex="1">
          <mxGeometry x="2380" y="-660" width="120" height="40" as="geometry" />
        </mxCell>
        <mxCell id="M0tK6JPJorDqjigLOlj5-222" style="edgeStyle=orthogonalEdgeStyle;rounded=0;orthogonalLoop=1;jettySize=auto;html=1;exitX=1;exitY=0.5;exitDx=0;exitDy=0;entryX=1;entryY=0.75;entryDx=0;entryDy=0;endArrow=blockThin;endFill=1;" parent="1" source="M0tK6JPJorDqjigLOlj5-223" target="M0tK6JPJorDqjigLOlj5-211" edge="1">
          <mxGeometry relative="1" as="geometry">
            <Array as="points">
              <mxPoint x="2689" y="-800.25" />
              <mxPoint x="2689" y="-470.25" />
            </Array>
          </mxGeometry>
        </mxCell>
        <mxCell id="M0tK6JPJorDqjigLOlj5-223" value="NOC interface" style="rounded=0;whiteSpace=wrap;html=1;" parent="1" vertex="1">
          <mxGeometry x="2380" y="-820" width="120" height="40" as="geometry" />
        </mxCell>
        <mxCell id="M0tK6JPJorDqjigLOlj5-224" value="" style="shape=link;endArrow=classic;html=1;rounded=0;" parent="1" edge="1">
          <mxGeometry width="50" height="50" relative="1" as="geometry">
            <mxPoint x="2430" y="-576.25" as="sourcePoint" />
            <mxPoint x="2450" y="-596.25" as="targetPoint" />
          </mxGeometry>
        </mxCell>
        <mxCell id="M0tK6JPJorDqjigLOlj5-225" value="2 ops/clk" style="text;html=1;align=center;verticalAlign=middle;whiteSpace=wrap;rounded=0;" parent="1" vertex="1">
          <mxGeometry x="2370" y="-593.75" width="60" height="15" as="geometry" />
        </mxCell>
        <mxCell id="M0tK6JPJorDqjigLOlj5-226" value="" style="shape=link;endArrow=classic;html=1;rounded=0;" parent="1" edge="1">
          <mxGeometry width="50" height="50" relative="1" as="geometry">
            <mxPoint x="2430" y="-670" as="sourcePoint" />
            <mxPoint x="2450" y="-690" as="targetPoint" />
          </mxGeometry>
        </mxCell>
        <mxCell id="M0tK6JPJorDqjigLOlj5-227" value="2 ops/clk" style="text;html=1;align=center;verticalAlign=middle;whiteSpace=wrap;rounded=0;" parent="1" vertex="1">
          <mxGeometry x="2370" y="-687.5" width="60" height="15" as="geometry" />
        </mxCell>
        <mxCell id="M0tK6JPJorDqjigLOlj5-228" value="" style="shape=link;endArrow=classic;html=1;rounded=0;" parent="1" edge="1">
          <mxGeometry width="50" height="50" relative="1" as="geometry">
            <mxPoint x="2430" y="-750" as="sourcePoint" />
            <mxPoint x="2450" y="-770" as="targetPoint" />
          </mxGeometry>
        </mxCell>
        <mxCell id="M0tK6JPJorDqjigLOlj5-229" value="2 ops/clk" style="text;html=1;align=center;verticalAlign=middle;whiteSpace=wrap;rounded=0;" parent="1" vertex="1">
          <mxGeometry x="2370" y="-767.5" width="60" height="15" as="geometry" />
        </mxCell>
        <mxCell id="M0tK6JPJorDqjigLOlj5-230" style="edgeStyle=orthogonalEdgeStyle;rounded=0;orthogonalLoop=1;jettySize=auto;html=1;exitX=0.5;exitY=0;exitDx=0;exitDy=0;entryX=0.75;entryY=1;entryDx=0;entryDy=0;startArrow=blockThin;startFill=1;endArrow=blockThin;endFill=1;" parent="1" source="M0tK6JPJorDqjigLOlj5-231" target="M0tK6JPJorDqjigLOlj5-213" edge="1">
          <mxGeometry relative="1" as="geometry" />
        </mxCell>
        <mxCell id="M0tK6JPJorDqjigLOlj5-231" value="IFU" style="rounded=0;whiteSpace=wrap;html=1;" parent="1" vertex="1">
          <mxGeometry x="2570" y="-360" width="60" height="30" as="geometry" />
        </mxCell>
        <mxCell id="M0tK6JPJorDqjigLOlj5-234" style="edgeStyle=orthogonalEdgeStyle;rounded=0;orthogonalLoop=1;jettySize=auto;html=1;exitX=0.5;exitY=0;exitDx=0;exitDy=0;entryX=0.25;entryY=1;entryDx=0;entryDy=0;startArrow=blockThin;startFill=1;endArrow=blockThin;endFill=1;" parent="1" source="M0tK6JPJorDqjigLOlj5-235" target="M0tK6JPJorDqjigLOlj5-213" edge="1">
          <mxGeometry relative="1" as="geometry" />
        </mxCell>
        <mxCell id="M0tK6JPJorDqjigLOlj5-235" value="LSQ" style="rounded=0;whiteSpace=wrap;html=1;" parent="1" vertex="1">
          <mxGeometry x="2410" y="-360" width="60" height="30" as="geometry" />
        </mxCell>
        <mxCell id="M0tK6JPJorDqjigLOlj5-236" value="&lt;h1 style=&quot;margin-top: 0px;&quot;&gt;Load Store&lt;/h1&gt;&lt;div&gt;- Operations complete in program order.&lt;/div&gt;&lt;div&gt;- Unified Load store buffer.&lt;/div&gt;&lt;div&gt;- Stores wait till commit to be sent to mem subsys&lt;/div&gt;&lt;div&gt;- Stores (incl un commited) are forwarded to loads.&lt;/div&gt;&lt;div&gt;- Loads are marked done once data is returned.&lt;/div&gt;&lt;div&gt;- Stores are marked done once in the LSQ.&lt;/div&gt;&lt;div&gt;- All Stores ahead of a load must complete before the load can despatch.&lt;/div&gt;&lt;div&gt;- Loads do not depend on other loads.&lt;/div&gt;&lt;div&gt;&lt;br&gt;&lt;/div&gt;&lt;div&gt;&lt;br&gt;&lt;/div&gt;" style="text;html=1;whiteSpace=wrap;overflow=hidden;rounded=0;" parent="1" vertex="1">
          <mxGeometry x="480" y="-720" width="280" height="200" as="geometry" />
        </mxCell>
        <mxCell id="7R9GxWuajzpSZmJWoWQB-1" value="Request presented" style="rounded=1;whiteSpace=wrap;html=1;" parent="1" vertex="1">
          <mxGeometry x="1000" y="40" width="120" height="60" as="geometry" />
        </mxCell>
        <mxCell id="7R9GxWuajzpSZmJWoWQB-2" value="Appended to LSQ" style="rounded=0;whiteSpace=wrap;html=1;" parent="1" vertex="1">
          <mxGeometry x="1000" y="160" width="120" height="40" as="geometry" />
        </mxCell>
        <mxCell id="7R9GxWuajzpSZmJWoWQB-3" value="Stores infront not done?" style="rhombus;whiteSpace=wrap;html=1;" parent="1" vertex="1">
          <mxGeometry x="1000" y="280" width="120" height="120" as="geometry" />
        </mxCell>
        <mxCell id="7R9GxWuajzpSZmJWoWQB-4" value="" style="rounded=0;whiteSpace=wrap;html=1;" parent="1" vertex="1">
          <mxGeometry x="1000" y="440" width="120" height="60" as="geometry" />
        </mxCell>
        <mxCell id="7R9GxWuajzpSZmJWoWQB-5" value="&lt;h1 style=&quot;margin-top: 0px;&quot;&gt;LSU&lt;/h1&gt;&lt;div&gt;- Operations appended in program order to LSQ&lt;/div&gt;&lt;div&gt;- If stores infront are done then perform the load&lt;/div&gt;&lt;div&gt;- Forward complete stores to loads if possible&lt;/div&gt;&lt;div&gt;- Operations retired from the Queue by commit in program order&lt;/div&gt;&lt;div&gt;&lt;br&gt;&lt;/div&gt;&lt;div&gt;- operations queued into LSQ in program order&lt;/div&gt;&lt;div&gt;- one mechanism to select a valid read from LSQ each cycle&lt;/div&gt;&lt;div&gt;- Attempt store forwarding.&lt;/div&gt;&lt;div&gt;- If not store forward then read from mem subsys.&lt;/div&gt;&lt;div&gt;&lt;br&gt;&lt;/div&gt;" style="text;html=1;whiteSpace=wrap;overflow=hidden;rounded=0;" parent="1" vertex="1">
          <mxGeometry x="480" y="160" width="360" height="280" as="geometry" />
        </mxCell>
      </root>
    </mxGraphModel>
  </diagram>
</mxfile>
